<?xml version="1.0" encoding="UTF-8" standalone="no"?>
<svg
   xmlns:dc="http://purl.org/dc/elements/1.1/"
   xmlns:cc="http://creativecommons.org/ns#"
   xmlns:rdf="http://www.w3.org/1999/02/22-rdf-syntax-ns#"
   xmlns:svg="http://www.w3.org/2000/svg"
   xmlns="http://www.w3.org/2000/svg"
   xmlns:sodipodi="http://sodipodi.sourceforge.net/DTD/sodipodi-0.dtd"
   xmlns:inkscape="http://www.inkscape.org/namespaces/inkscape"
   version="1.1"
   id="svg2"
   width="1237.0696"
   height="1306.1724"
   viewBox="0 0 1237.0697 1306.1724"
   sodipodi:docname="bee.svg"
   inkscape:version="1.0 (4035a4fb49, 2020-05-01)"
   inkscape:export-filename="/home/ali/Code/HiveMind/src/assets/orange_ant.png"
   inkscape:export-xdpi="96.099998"
   inkscape:export-ydpi="96.099998">
  <metadata
     id="metadata8">
    <rdf:RDF>
      <cc:Work
         rdf:about="">
        <dc:format>image/svg+xml</dc:format>
        <dc:type
           rdf:resource="http://purl.org/dc/dcmitype/StillImage" />
        <dc:title />
      </cc:Work>
    </rdf:RDF>
  </metadata>
  <defs
     id="defs6" />
  <sodipodi:namedview
     inkscape:document-rotation="0"
     pagecolor="#ffffff"
     bordercolor="#666666"
     borderopacity="1"
     objecttolerance="10"
     gridtolerance="10"
     guidetolerance="10"
     inkscape:pageopacity="0"
     inkscape:pageshadow="2"
     inkscape:window-width="622"
     inkscape:window-height="1032"
     id="namedview4"
     showgrid="false"
     inkscape:zoom="0.19542436"
     inkscape:cx="379.42201"
     inkscape:cy="576.86349"
     inkscape:window-x="1283"
     inkscape:window-y="13"
     inkscape:window-maximized="0"
     inkscape:current-layer="g10" />
  <g
     inkscape:groupmode="layer"
     inkscape:label="Image"
     id="g10"
     transform="translate(87.563651,113.90751)">
    <path
       style="fill:#000000;stroke-width:1.07833"
       d="m 524.23478,1065.806 c -6.5225,-2.398 -10.57832,-5.8781 -12.8636,-11.0417 -2.0766,-4.6938 -3.40617,-20.8977 -4.34531,-52.9613 l -0.2649,-9.05932 -9.93396,-3.97964 c -28.58908,-11.4712 -65.57379,-40.10967 -93.30689,-72.2474 -28.91846,-33.51363 -46.72295,-60.5879 -68.59359,-104.30962 -5.41301,-10.82205 -10.134,-19.67581 -10.48874,-19.67581 -0.35599,0 -8.72283,3.45025 -18.59298,7.66844 -28.09958,12.00796 -44.10588,15.37577 -79.39848,16.70767 -21.92557,0.82685 -33.26515,-0.35385 -53.02459,-5.52284 C 125.2525,798.78342 88.809992,773.37477 62.878163,734.31131 45.481066,708.10499 35.233498,680.19789 31.914678,649.99035 c -1.644575,-14.96948 -1.391434,-44.69682 0.493508,-57.96034 6.889094,-48.47439 33.36164,-93.15092 71.669464,-120.95403 27.59082,-20.02476 88.57877,-50.44343 167.64993,-83.61726 l 22.64125,-9.49855 1.24315,-21.41666 c 1.49381,-25.72516 2.72464,-34.91688 6.914,-51.63125 13.47209,-53.75672 51.02673,-105.77817 100.15722,-138.73879 5.06133,-3.39534 15.14522,-9.43627 22.40901,-13.42403 l 13.20748,-7.25086 v -9.48647 c 0,-16.9131 -4.65246,-37.859847 -11.1487,-50.198805 -3.75394,-7.12936 -18.75623,-22.88132 -28.97308,-30.421473 -7.8021,-5.757627 -11.81704,-11.722031 -12.38143,-18.390634 -0.35685,-4.208707 0.14525,-6.08171 2.88631,-10.770257 3.72082,-6.365335 10.33773,-11.726206 15.71895,-12.735707 8.75905,-1.64324 25.44123,8.095744 41.46415,24.206586 5.67578,5.70723 12.59722,13.830695 15.38137,18.052177 9.83912,14.91949 18.21158,40.596955 20.46651,62.764483 l 1.24193,12.22026 3.81716,-0.71286 c 2.09868,-0.39175 22.32172,-0.95772 44.93895,-1.2572 l 41.12257,-0.54473 0.74411,-7.18969 C 575.46904,102.7704 580.6014,83.037093 587.447,67.713456 595.25262,50.23939 612.14616,30.262518 628.19807,19.525974 646.0557,7.5809528 658.00586,8.2962618 667.1127,21.855215 c 2.38605,3.552971 2.98577,5.670435 2.98577,10.541572 0,7.867039 -3.95363,14.371985 -12.62818,20.777924 -21.5884,15.941783 -34.58098,36.772138 -36.94741,59.236549 -0.58217,5.53214 -1.068,14.92006 -1.07844,20.86184 l -0.0219,10.80292 12.40862,6.17641 c 25.82547,12.85553 40.35812,23.31743 62.35381,44.88773 23.44031,22.98708 36.67654,41.09989 49.31932,67.4877 15.90757,33.20158 21.77448,57.44352 23.22235,95.95397 l 0.72959,19.40645 19.51141,8.01769 c 103.47018,42.52262 164.27989,75.42568 193.62188,104.76628 21.66048,21.65752 43.00828,64.28469 47.99428,95.83479 2.3661,14.97859 3.3794,53.99512 1.7126,65.92576 -7.6675,54.72342 -38.8701,104.31982 -84.19705,133.81812 -36.00921,23.435 -76.88582,33.34674 -123.55628,29.95935 -29.09023,-2.11161 -49.70396,-7.40695 -71.58698,-18.388 -6.06138,-3.0417 -11.61358,-5.3032 -12.33839,-5.02524 -0.72451,0.27856 -5.11979,7.95114 -9.76717,17.05069 -26.52908,51.94358 -54.90598,92.14683 -88.91802,125.9748 -26.77719,26.63374 -50.59792,43.21029 -77.38153,53.84848 l -8.89467,3.5383 v 23.773 c 0,35.5842 -1.67123,41.7394 -12.86247,47.4134 -6.44465,3.2628 -10.39078,3.5743 -16.56324,1.3103 z M 548.5734,948.1315 c 11.76163,-3.49359 29.23953,-13.85972 43.74834,-25.94506 8.44936,-7.03791 27.10459,-25.21072 27.10459,-26.40278 0,-1.00684 -170.90605,-0.91194 -174.49775,0.0965 -2.35453,0.66145 -1.85543,1.3624 7.01478,9.86539 24.66771,23.64558 41.77887,35.64897 59.10055,41.45698 11.91153,3.99136 26.03653,4.33958 37.52949,0.92886 z M 661.62106,840.77209 c 17.6937,-29.02097 39.82287,-75.47443 37.2011,-78.09622 -1.32887,-1.3288 -88.09772,-2.28225 -217.66708,-2.38986 L 362.8305,760.1869 v 2.75643 c 0,6.17936 19.33773,46.68603 34.84191,72.98239 l 8.74047,14.82429 124.56569,-0.01 124.56568,-0.01 6.07681,-9.96709 z m 205.03668,-67.24722 c 30.91286,-5.82545 65.50766,-26.82135 87.34603,-53.01331 30.24887,-36.26814 41.21717,-75.83778 33.99141,-122.5843 -4.2812,-27.68679 -25.65603,-65.57491 -47.70428,-84.55386 -35.4311,-30.50209 -145.00507,-79.85952 -304.15373,-137.00407 -45.39632,-16.29992 -68.46128,-23.44771 -68.46128,-21.21451 0,0.29551 5.53128,16.22734 12.29232,35.40353 60.888,172.71025 107.44537,280.21035 141.07104,325.73333 24.68466,33.41727 62.5861,55.08244 103.23292,59.01014 11.5765,1.11884 31.43645,0.286 42.38557,-1.77695 z m -618.53013,0.59296 c 26.4649,-3.68087 56.83187,-19.67651 78.5172,-41.35799 18.47458,-18.47202 24.68945,-28.41235 51.27219,-82.00352 27.9113,-56.27295 58.74225,-132.42389 96.46589,-238.26763 16.65691,-46.73772 20.32459,-57.69497 19.56499,-58.45456 -1.33965,-1.33989 -53.54315,16.83741 -123.57083,43.02642 -123.80284,46.29994 -204.81054,83.44479 -240.66433,110.35275 -27.84561,20.89906 -47.496495,52.0002 -54.835069,86.78735 -3.136376,14.86782 -3.441125,42.13178 -0.629361,56.30755 4.053958,20.43817 11.952539,39.5673 23.549854,57.03317 8.724396,13.13892 29.398966,33.89907 42.129136,42.30469 17.82583,11.76876 38.86696,20.70206 56.14835,23.83788 9.57703,1.73766 40.80636,1.99765 52.05198,0.43389 z m 417.11774,-60.29546 c -0.37681,-1.18846 -10.08977,-21.32221 -21.58303,-44.74209 l -20.89831,-42.58241 -91.963,0.048 -91.96267,0.048 -3.92131,8.30667 c -2.15698,4.5685 -11.95508,24.6805 -21.77456,44.69349 l -17.85233,36.38696 h 135.32024 c 134.92351,0 135.319,-0.008 134.63497,-2.16068 z M 586.91767,537.8212 c -9.42991,-23.86666 -17.54795,-44.12263 -18.04119,-45.01166 -0.76451,-1.38066 -6.34763,-1.65885 -38.09571,-1.9004 l -37.20006,-0.28396 -3.54133,9.44748 c -1.9478,5.19624 -9.96797,25.57975 -17.82314,45.29563 l -14.28181,35.84833 h 73.06438 73.06313 z m -36.18411,-92.38665 c 0.85626,-0.79531 -12.34542,-38.71314 -17.28832,-49.65752 l -2.67767,-5.92958 -1.63065,3.77325 c -3.30987,7.6635 -17.58462,47.66683 -17.81947,49.93943 -0.23122,2.22461 0.27599,2.3789 9.45898,2.88981 11.71009,0.65006 28.78605,0.0747 29.95713,-1.01539 z M 374.17142,347.82013 c 35.87295,-13.27048 74.84272,-27.04688 123.42575,-43.63369 l 33.96125,-11.59434 30.72625,10.65934 c 35.63034,12.36056 120.44782,42.56795 143.75543,51.19746 8.79794,3.25707 16.26073,5.65725 16.58563,5.33234 0.97755,-0.9773 -1.77273,-26.32444 -4.10692,-37.85629 -16.14274,-79.74385 -83.51703,-141.2092 -163.62541,-149.27591 -34.30211,-3.45398 -61.86799,-0.18973 -92.25055,10.9245 -32.2744,11.80479 -49.85003,23.93332 -76.83111,53.01629 -19.49041,21.00838 -32.27564,45.96711 -40.25856,78.58351 -5.44059,22.23063 -7.50872,46.07927 -3.87562,44.68511 0.6869,-0.26345 15.30895,-5.68072 32.49386,-12.03832 z"
       id="path2387" />
  </g>
</svg>
