<?xml version="1.0" encoding="UTF-8" standalone="no"?>
<svg
   xmlns:dc="http://purl.org/dc/elements/1.1/"
   xmlns:cc="http://creativecommons.org/ns#"
   xmlns:rdf="http://www.w3.org/1999/02/22-rdf-syntax-ns#"
   xmlns:svg="http://www.w3.org/2000/svg"
   xmlns="http://www.w3.org/2000/svg"
   xmlns:sodipodi="http://sodipodi.sourceforge.net/DTD/sodipodi-0.dtd"
   xmlns:inkscape="http://www.inkscape.org/namespaces/inkscape"
   inkscape:export-ydpi="96.099998"
   inkscape:export-xdpi="96.099998"
   inkscape:export-filename="/home/ali/Code/HiveMind/src/assets/black_bee.png"
   inkscape:version="1.0 (4035a4fb49, 2020-05-01)"
   sodipodi:docname="beetle.svg"
   viewBox="0 0 1134.5704 1310.0899"
   height="1310.0898"
   width="1134.5703"
   id="svg2"
   version="1.1">
  <metadata
     id="metadata8">
    <rdf:RDF>
      <cc:Work
         rdf:about="">
        <dc:format>image/svg+xml</dc:format>
        <dc:type
           rdf:resource="http://purl.org/dc/dcmitype/StillImage" />
        <dc:title></dc:title>
      </cc:Work>
    </rdf:RDF>
  </metadata>
  <defs
     id="defs6" />
  <sodipodi:namedview
     inkscape:current-layer="g10"
     inkscape:window-maximized="0"
     inkscape:window-y="13"
     inkscape:window-x="963"
     inkscape:cy="655.04514"
     inkscape:cx="567.28512"
     inkscape:zoom="0.17086161"
     showgrid="false"
     id="namedview4"
     inkscape:window-height="1032"
     inkscape:window-width="942"
     inkscape:pageshadow="2"
     inkscape:pageopacity="0"
     guidetolerance="10"
     gridtolerance="10"
     objecttolerance="10"
     borderopacity="1"
     bordercolor="#666666"
     pagecolor="#ffffff"
     inkscape:document-rotation="0" />
  <g
     transform="translate(34.40545,192.08915)"
     id="g10"
     inkscape:label="Image"
     inkscape:groupmode="layer">
    <path
       id="path3460"
       d="m 336.06369,834.28228 c -16.27053,-11.3321 -29.9442,-37.3378 -54.76118,-104.1489 -6.52981,-17.58092 -11.43623,-28.46355 -14.19144,-31.47753 -9.19647,-10.06005 -8.69026,-16.87346 1.92326,-25.88707 5.74684,-4.88118 8.46266,-9.7488 22.59513,-40.50036 8.83505,-19.22434 19.12219,-42.16975 22.86048,-50.98973 6.22616,-14.69075 7.45159,-16.50759 14.60326,-21.64684 28.12413,-20.21126 36.21266,-42.51178 32.76189,-90.3272 -0.83104,-11.51106 -1.86228,-21.96637 -2.29133,-23.23332 -0.47472,-1.40076 -2.15381,1.17504 -4.28468,6.57203 -5.34785,13.54627 -15.82999,28.78947 -33.14092,48.19717 -45.99708,51.56582 -56.26395,68.79566 -59.15595,99.26771 l -1.19227,12.5619 -2.86925,-9.21341 c -2.26183,-7.26283 -2.86576,-13.59903 -2.85327,-29.94146 0.0121,-18.93517 0.35577,-21.56762 3.93937,-30.42075 2.15788,-5.33063 8.0443,-16.17076 13.08227,-24.08864 9.76976,-15.35674 11.7553,-21.15695 11.82401,-34.54769 0.14431,-27.91171 16.57901,-53.18173 48.76368,-74.97814 15.88297,-10.75717 27.19059,-15.62921 55.93896,-24.1037 12.7598,-3.76112 23.44088,-7.08904 23.73667,-7.39505 0.29508,-0.30604 -2.3104,-2.48449 -5.78958,-4.84078 -3.47988,-2.357 -10.32648,-7.80168 -15.21567,-12.09983 -33.22694,-29.21226 -52.99802,-67.53117 -64.51328,-125.03353 -1.57408,-7.86017 -4.79997,-18.91584 -7.16816,-24.56745 -7.12772,-17.00744 -7.46281,-27.93298 -0.85788,-27.93298 1.0519,0 7.31074,4.14768 13.90822,9.21777 6.59738,5.07013 12.65969,9.38848 13.4722,9.5967 0.8125,0.20822 13.37793,-27.21612 27.92363,-60.94297 29.6293,-68.701105 31.18785,-71.245064 49.08708,-80.119789 15.74633,-7.807071 20.5999,-9.07041 23.46042,-6.105824 3.37902,3.502055 1.07583,6.796568 -8.54385,12.221732 -9.45398,5.332137 -12.6086,11.51919 -11.11981,21.810643 1.52104,10.509836 0.12223,13.180748 -12.04914,23.008418 -20.94842,16.91419 -28.22299,32.03124 -36.96223,76.81486 -8.60767,44.10785 -7.71076,52.92097 9.1214,89.58681 9.78374,21.31471 16.8338,41.7782 16.8338,48.86376 0,2.55767 0.5197,3.52578 1.3994,2.60824 1.20121,-1.25242 25.21939,-45.28719 45.76337,-83.90196 l 6.28402,-11.81133 -5.61233,-1.72637 c -3.08645,-0.94949 -15.27844,-2.33627 -27.09318,-3.08211 -11.81498,-0.74584 -24.04448,-2.13206 -27.17692,-3.08087 -8.27579,-2.50563 -15.93202,-10.30012 -16.09873,-16.38756 -0.16246,-5.96074 3.83898,-12.75136 7.51476,-12.75136 1.47924,0 8.88023,4.62208 16.44742,10.27076 l 13.75819,10.27076 22.26951,1.6574 c 22.20149,1.65257 22.28579,1.64623 27.68856,-1.98486 5.95509,-4.00174 14.14982,-15.5487 15.66328,-22.07044 2.15889,-9.30447 7.73253,-9.36676 12.34291,-0.13772 1.60321,3.20849 6.96633,9.95711 11.91906,14.99759 l 9.0046,9.1648 9.00461,-9.1648 c 4.95273,-5.04048 10.31585,-11.7891 11.91906,-14.99759 4.61038,-9.22904 10.18402,-9.16675 12.34291,0.13772 1.51346,6.52174 9.70819,18.0687 15.66328,22.07044 5.40277,3.63109 5.48707,3.63743 27.68856,1.98486 l 22.26951,-1.6574 13.75819,-10.27076 c 7.56719,-5.64868 14.96818,-10.27076 16.44742,-10.27076 3.67575,0 7.67722,6.79062 7.51476,12.75136 -0.16671,6.08744 -7.82294,13.88193 -16.09873,16.38756 -3.13244,0.94881 -15.36219,2.33503 -27.17692,3.08087 -11.81474,0.74584 -24.00673,2.13262 -27.09318,3.08211 l -5.61233,1.72637 6.28402,11.81133 c 20.54398,38.61477 44.56216,82.64954 45.76337,83.90196 0.8797,0.91754 1.39918,-0.0485 1.39918,-2.60824 0,-7.08556 7.05028,-27.54905 16.83402,-48.86376 16.87212,-36.75303 17.7785,-45.67052 9.11642,-89.6943 -8.81957,-44.8247 -16.03259,-59.81258 -36.8872,-76.65066 -6.17842,-4.98846 -11.64633,-10.41812 -12.15078,-12.0659 -0.50467,-1.647793 -0.50289,-6.548777 0.004,-10.89112 1.27286,-10.898253 -2.04075,-17.288145 -11.62483,-22.415403 -9.06073,-4.84778 -11.37729,-8.237186 -8.01184,-11.72508 2.85929,-2.963892 7.70655,-1.703014 23.46042,6.102739 18.04367,8.940465 19.46874,11.264023 49.08254,80.025844 14.54783,33.78026 27.11569,61.24822 27.92819,61.04 0.81251,-0.20822 6.87478,-4.52657 13.4722,-9.5967 6.59748,-5.07009 12.85632,-9.21777 13.90822,-9.21777 6.60493,0 6.26984,10.92554 -0.85788,27.93298 -2.36819,5.65161 -5.59408,16.70728 -7.16816,24.56745 -11.59775,57.91441 -31.54798,96.3522 -65.22541,125.66909 -5.37042,4.67516 -12.27556,10.10867 -15.34483,12.07477 -3.06927,1.96611 -5.31755,3.84714 -4.99597,4.18045 0.3216,0.33332 11.02455,3.68376 23.78435,7.44488 28.74837,8.47449 40.05599,13.34653 55.93896,24.1037 32.18467,21.79641 48.61937,47.06643 48.76368,74.97814 0.0708,13.39074 2.05425,19.19095 11.82401,34.54769 5.03797,7.91788 10.92439,18.75801 13.08227,24.08864 3.58359,8.85313 3.92454,11.48558 3.93938,30.42075 0.011,16.34305 -0.59141,22.67835 -2.85345,29.94146 l -2.86943,9.21341 -1.1526,-12.10833 c -2.96938,-31.20712 -12.01021,-46.36292 -60.27557,-101.05251 -17.06629,-19.33794 -26.82351,-33.60096 -32.0606,-46.86594 -2.14574,-5.43456 -3.81099,-7.98212 -4.2964,-6.57203 -0.43573,1.26695 -1.44345,11.97715 -2.2386,23.80013 -3.23337,48.04416 4.60922,69.55799 32.72088,89.76039 7.15167,5.13925 8.3771,6.95609 14.60328,21.64684 3.73827,8.81998 14.02541,31.76539 22.86046,50.98973 14.13247,30.75156 16.84829,35.61918 22.59512,40.50036 10.61354,9.01361 11.11974,15.82702 1.92326,25.88707 -2.7552,3.01398 -7.66162,13.89661 -14.19142,31.47753 -24.81699,66.8111 -38.49066,92.8168 -54.76119,104.1489 -5.6698,3.9491 -8.32309,4.907 -11.66998,4.2131 -13.0243,-2.7 -10.42999,-14.8819 5.62436,-26.4113 7.89864,-5.6722 9.14177,-7.565 27.03695,-41.1788 11.47222,-21.5485 18.07614,-35.4684 17.00369,-35.8394 -4.61735,-1.595 -16.26209,-11.25385 -20.53714,-17.03494 -7.84502,-10.6074 -9.29745,-18.54483 -9.29745,-50.80811 0,-31.18485 -1.59534,-41.49193 -8.06926,-52.12033 -4.69889,-7.71462 -6.48431,-8.78253 -7.38034,-4.41451 -15.96399,77.79848 -36.34368,120.95509 -70.415,149.11149 -26.46381,21.869 -59.22122,31.7521 -105.2456,31.7521 -12.31733,0 -27.18957,-0.7461 -33.04941,-1.6578 -46.18669,-7.188 -77.98364,-27.1685 -102.43596,-64.36713 -13.44068,-20.44708 -27.74814,-57.96783 -34.83741,-91.36044 -6.46029,-30.42834 -6.1135,-29.90847 -12.71815,-19.06371 -6.47392,10.6284 -8.06926,20.93548 -8.06926,52.12033 0,32.26328 -1.45243,40.20071 -9.29745,50.80811 -4.25693,5.75715 -15.91441,15.43864 -20.49469,17.02084 -1.01647,0.3509 5.88446,14.9071 16.99179,35.8394 17.88012,33.6963 19.06818,35.509 26.99449,41.1929 16.06464,11.5195 18.66633,23.7104 5.63627,26.4113 -3.34689,0.6939 -6.00001,-0.264 -11.66998,-4.2131 z"
       style="fill:#000000;stroke-width:1.50805" />
  </g>
</svg>
