<?xml version="1.0" encoding="UTF-8" standalone="no"?>
<svg
   xmlns:dc="http://purl.org/dc/elements/1.1/"
   xmlns:cc="http://creativecommons.org/ns#"
   xmlns:rdf="http://www.w3.org/1999/02/22-rdf-syntax-ns#"
   xmlns:svg="http://www.w3.org/2000/svg"
   xmlns="http://www.w3.org/2000/svg"
   xmlns:sodipodi="http://sodipodi.sourceforge.net/DTD/sodipodi-0.dtd"
   xmlns:inkscape="http://www.inkscape.org/namespaces/inkscape"
   inkscape:export-ydpi="96.099998"
   inkscape:export-xdpi="96.099998"
   inkscape:export-filename="/home/ali/Code/HiveMind/src/assets/orange_bee.png"
   inkscape:version="1.0 (4035a4fb49, 2020-05-01)"
   sodipodi:docname="black_bee.svg"
   viewBox="0 0 1134.5704 1310.0899"
   height="1310.0898"
   width="1134.5703"
   id="svg2"
   version="1.1">
  <metadata
     id="metadata8">
    <rdf:RDF>
      <cc:Work
         rdf:about="">
        <dc:format>image/svg+xml</dc:format>
        <dc:type
           rdf:resource="http://purl.org/dc/dcmitype/StillImage" />
        <dc:title></dc:title>
      </cc:Work>
    </rdf:RDF>
  </metadata>
  <defs
     id="defs6" />
  <sodipodi:namedview
     inkscape:current-layer="g10"
     inkscape:window-maximized="0"
     inkscape:window-y="13"
     inkscape:window-x="963"
     inkscape:cy="655.04514"
     inkscape:cx="567.28512"
     inkscape:zoom="0.17086161"
     showgrid="false"
     id="namedview4"
     inkscape:window-height="1032"
     inkscape:window-width="942"
     inkscape:pageshadow="2"
     inkscape:pageopacity="0"
     guidetolerance="10"
     gridtolerance="10"
     objecttolerance="10"
     borderopacity="1"
     bordercolor="#666666"
     pagecolor="#ffffff"
     inkscape:document-rotation="0" />
  <g
     transform="translate(34.40545,192.08915)"
     id="g10"
     inkscape:label="Image"
     inkscape:groupmode="layer">
    <path
       transform="translate(-259.54803,-115.31181)"
       d="M 792.42773,-76.777344 225.14258,250.74609 V 905.78906 L 792.42773,1233.3125 1359.7129,905.78906 V 250.74609 Z M 911.1875,50.179688 c 6.90235,-0.01896 12.54285,3.560479 17.38086,10.763671 2.38605,3.55298 2.98633,5.669876 2.98633,10.541016 0,7.86704 -3.95241,14.371404 -12.62696,20.777344 -21.5884,15.941781 -34.58278,36.771921 -36.94921,59.236331 -0.58217,5.53214 -1.06769,14.9215 -1.07813,20.86328 l -0.0215,10.80273 12.4082,6.17578 c 25.82547,12.85553 40.35782,23.31837 62.35351,44.88868 23.44031,22.98708 36.67754,41.09851 49.3203,67.48632 15.9076,33.20158 21.7748,57.44463 23.2227,95.95508 l 0.7285,19.40625 19.5117,8.01758 c 103.4702,42.52262 164.2811,75.42503 193.6231,104.76563 21.6605,21.65751 43.0081,64.28583 47.9941,95.83593 2.3661,14.97859 3.3797,53.99514 1.7129,65.92578 -7.6675,54.72342 -38.8703,104.31811 -84.1973,133.81641 -36.0092,23.435 -76.8861,33.34833 -123.5566,29.96094 -29.0902,-2.11161 -49.7049,-7.40762 -71.5879,-18.38867 -6.0614,-3.0417 -11.6131,-5.30335 -12.3379,-5.02539 -0.72451,0.27855 -5.1202,7.95123 -9.76758,17.05078 -26.52908,51.94358 -54.90593,92.14671 -88.91797,125.97461 -26.77719,26.63383 -50.59725,43.21143 -77.38086,53.84963 l -8.89453,3.5371 v 23.7734 c 0,35.5842 -1.67204,41.7401 -12.86328,47.4141 -6.44337,3.2621 -10.38824,3.5711 -16.55859,1.3086 -6.5225,-2.398 -10.578,-5.8774 -12.86329,-11.041 -2.07659,-4.6938 -3.40656,-20.8974 -4.3457,-52.961 l -0.26562,-9.0586 -9.9336,-3.9804 c -28.58908,-11.4712 -65.57354,-40.11038 -93.30664,-72.24808 -28.91846,-33.51368 -46.72311,-60.58688 -68.59375,-104.3086 -5.41301,-10.82205 -10.13354,-19.67578 -10.48828,-19.67578 -0.35599,0 -8.7236,3.44978 -18.59375,7.66797 -28.09958,12.00796 -44.10584,15.37513 -79.39844,16.70703 -21.92557,0.82685 -33.26399,-0.35249 -53.02343,-5.52148 -48.16924,-12.60106 -84.6131,-38.01076 -110.54493,-77.07422 -17.39709,-26.20632 -27.64407,-54.11278 -30.96289,-84.32032 -1.64458,-14.96947 -1.39081,-44.69741 0.49414,-57.96093 6.88909,-48.47439 33.36016,-93.15002 71.66797,-120.95313 27.59082,-20.02476 88.57923,-50.44336 167.65039,-83.61718 l 22.64258,-9.5 1.24219,-21.41602 c 1.49381,-25.72516 2.7247,-34.91649 6.91406,-51.63086 13.47209,-53.75672 51.02771,-105.77766 100.1582,-138.73828 5.06133,-3.39534 15.14442,-9.43802 22.40821,-13.42578 l 13.20703,-7.25 v -9.48633 c 0,-16.9131 -4.6522,-37.86027 -11.14844,-50.19922 -3.75394,-7.12936 -18.7558,-22.88171 -28.97265,-30.421874 -7.8021,-5.75762 -11.81647,-11.722025 -12.38086,-18.390625 -0.35685,-4.20871 0.1437,-6.080982 2.88476,-10.769532 3.72082,-6.36533 10.33753,-11.726818 15.71875,-12.736328 8.75905,-1.64324 25.44193,8.096191 41.46485,24.207031 5.67578,5.70723 12.59671,13.831255 15.38085,18.052735 9.83912,14.919493 18.21187,40.596143 20.4668,62.763673 l 1.24219,12.2207 3.81641,-0.71289 c 2.09868,-0.39175 22.32222,-0.95833 44.93945,-1.25781 l 41.12305,-0.54492 0.74414,-7.18946 c 1.89055,-18.26386 7.02354,-37.99668 13.86914,-53.32031 7.80562,-17.474069 24.69809,-37.450949 40.75,-48.187499 8.37076,-5.599228 15.44289,-8.416867 21.5332,-8.433593 z M 791.73633,210.42383 c -23.64829,-0.0181 -44.8498,3.90065 -67.63672,12.23633 -32.2744,11.80479 -49.85095,23.9346 -76.83203,53.01757 -19.49041,21.00838 -32.27489,45.96759 -40.25781,78.58399 -5.44059,22.23063 -7.5081,46.07775 -3.875,44.68359 0.6869,-0.26345 15.30727,-5.67951 32.49218,-12.03711 35.87295,-13.27048 74.84275,-27.04795 123.42578,-43.63476 l 33.96289,-11.59375 30.72461,10.66015 c 35.63034,12.36056 120.44825,42.56776 143.75586,51.19727 8.79794,3.25707 16.26104,5.65694 16.58594,5.33203 0.97755,-0.9773 -1.77323,-26.32557 -4.10742,-37.85742 -16.14274,-79.74385 -83.51662,-141.20868 -163.625,-149.27539 -8.57553,-0.8635 -16.73052,-1.30647 -24.61328,-1.3125 z m -36.60547,182.6289 c -4.34618,-0.12719 -55.45756,17.7251 -123.29688,43.09571 -123.80284,46.29994 -204.81027,83.4436 -240.66406,110.35156 -27.84561,20.89906 -47.49736,52.00191 -54.83594,86.78906 -3.13637,14.86782 -3.44066,42.13087 -0.6289,56.30664 4.05396,20.43817 11.95151,39.56734 23.54883,57.03321 8.72438,13.13892 29.39873,33.89906 42.1289,42.30468 17.82583,11.76876 38.86705,20.70207 56.14844,23.83789 9.57703,1.73766 40.80711,1.99736 52.05273,0.4336 26.4649,-3.68087 56.83225,-19.67594 78.51758,-41.35742 18.47458,-18.47202 24.68875,-28.41274 51.27149,-82.00391 27.9113,-56.27295 58.74315,-132.42384 96.46679,-238.26758 16.65691,-46.73772 20.32406,-57.69549 19.56446,-58.45508 -0.0419,-0.0419 -0.13324,-0.0642 -0.27344,-0.0684 z m 75.08203,0.79102 c -0.71935,-0.0136 -1.08008,0.11929 -1.08008,0.39844 0,0.29551 5.52998,16.2281 12.29102,35.40429 60.888,172.71025 107.44659,280.20945 141.07226,325.73243 24.68471,33.41727 62.58561,55.08206 103.23241,59.00976 11.5765,1.11884 31.4357,0.28756 42.3848,-1.77539 30.9128,-5.82545 65.5093,-26.82171 87.3476,-53.01367 30.2489,-36.26814 41.2161,-75.83746 33.9903,-122.58399 -4.2812,-27.68678 -25.655,-65.57573 -47.7032,-84.55468 -35.4311,-30.50209 -145.0056,-79.85936 -304.15425,-137.00391 -39.72178,-14.26243 -62.34543,-21.51837 -67.38086,-21.61328 z m -37.98828,35.0918 -1.63086,3.77343 c -3.30987,7.6635 -17.58546,47.66686 -17.82031,49.93946 -0.23122,2.22461 0.27599,2.37776 9.45898,2.88867 11.71009,0.65006 28.78595,0.0745 29.95703,-1.01563 0.85626,-0.79531 -12.34421,-38.71187 -17.28711,-49.65625 z m -37.1875,100.77734 -3.54102,9.44727 c -1.9478,5.19624 -9.96904,25.57904 -17.82421,45.29492 l -14.28126,35.84961 h 73.06446 73.0625 L 848.375,576.9082 c -9.42991,-23.86666 -17.54973,-44.12269 -18.04297,-45.01172 -0.76451,-1.38066 -6.34762,-1.65884 -38.0957,-1.90039 z m 129.18359,135.87305 -91.96289,0.0469 -91.96289,0.0488 -3.92187,8.30664 c -2.15698,4.5685 -11.95396,24.68037 -21.77344,44.69336 l -17.85352,36.38672 h 135.32032 c 134.88207,0 135.31791,-0.007 134.63476,-2.1582 -0.37969,-1.19425 -10.09058,-21.32601 -21.58203,-44.74219 z m -259.93359,133.6875 v 2.75781 c 0,6.17936 19.33762,46.68606 34.8418,72.98242 l 8.74023,14.82422 124.56641,-0.01 124.56445,-0.01 6.07812,-9.96875 v 0.01 c 17.69371,-29.02098 39.82295,-75.47392 37.20118,-78.09571 -1.32887,-1.3288 -88.09861,-2.28301 -217.66797,-2.39062 z m 170.69336,134.89062 c -43.17548,0.0239 -86.79985,0.29874 -88.5957,0.80274 -2.35453,0.6614 -1.85459,1.36223 7.01562,9.86523 24.66771,23.6455 41.77793,35.64903 59.09961,41.45703 11.91153,3.9914 26.03634,4.34039 37.5293,0.92969 11.76163,-3.4936 29.23923,-13.86001 43.74804,-25.94531 8.44936,-7.038 27.10547,-25.21035 27.10547,-26.40235 0,-0.50345 -42.72687,-0.73089 -85.90234,-0.70703 z"
       inkscape:transform-center-y="-2.0158062e-06"
       inkscape:transform-center-x="1.4942359e-06"
       style="fill:#333333;fill-opacity:1;stroke:none;stroke-width:3.77953;stroke-miterlimit:4;stroke-dasharray:none;stroke-opacity:0.92549;paint-order:markers fill stroke;stop-color:#000000"
       id="path1415" />
  </g>
</svg>
