<?xml version="1.0" encoding="UTF-8" standalone="no"?>
<svg
   xmlns:dc="http://purl.org/dc/elements/1.1/"
   xmlns:cc="http://creativecommons.org/ns#"
   xmlns:rdf="http://www.w3.org/1999/02/22-rdf-syntax-ns#"
   xmlns:svg="http://www.w3.org/2000/svg"
   xmlns="http://www.w3.org/2000/svg"
   xmlns:sodipodi="http://sodipodi.sourceforge.net/DTD/sodipodi-0.dtd"
   xmlns:inkscape="http://www.inkscape.org/namespaces/inkscape"
   inkscape:export-ydpi="96.099998"
   inkscape:export-xdpi="96.099998"
   inkscape:export-filename="/home/ali/Code/HiveMind/src/assets/black_ant.png"
   width="300.18839mm"
   height="346.62741mm"
   viewBox="0 0 300.18838 346.62742"
   version="1.1"
   id="svg837"
   sodipodi:docname="black_ant.svg"
   inkscape:version="1.0 (4035a4fb49, 2020-05-01)">
  <defs
     id="defs831" />
  <sodipodi:namedview
     id="base"
     pagecolor="#ffffff"
     bordercolor="#666666"
     borderopacity="1.0"
     inkscape:pageopacity="0.0"
     inkscape:pageshadow="2"
     inkscape:zoom="0.20800827"
     inkscape:cx="567.28514"
     inkscape:cy="612.93566"
     inkscape:document-units="mm"
     inkscape:current-layer="layer1"
     inkscape:document-rotation="0"
     showgrid="false"
     inkscape:window-width="622"
     inkscape:window-height="1032"
     inkscape:window-x="1283"
     inkscape:window-y="13"
     inkscape:window-maximized="1" />
  <metadata
     id="metadata834">
    <rdf:RDF>
      <cc:Work
         rdf:about="">
        <dc:format>image/svg+xml</dc:format>
        <dc:type
           rdf:resource="http://purl.org/dc/dcmitype/StillImage" />
        <dc:title></dc:title>
      </cc:Work>
    </rdf:RDF>
  </metadata>
  <g
     inkscape:label="Layer 1"
     inkscape:groupmode="layer"
     id="layer1"
     transform="translate(46.133736,21.674591)">
    <path
       transform="matrix(0.26458333,0,0,0.26458333,-46.133736,-21.674591)"
       d="M 567.28516,0 0,327.52148 V 982.56641 L 567.28516,1310.0879 1134.5703,982.56641 V 327.52148 Z m 350.83789,325.63867 c 1.75223,-0.0401 3.04111,0.75133 4.41601,2.21485 4.35659,4.63741 2.65194,7.96234 -7.60547,14.83984 -50.29621,33.72306 -109.54003,93.16154 -148.06445,148.55078 l -2.22852,3.20508 3.28711,1.69726 c 1.80753,0.93374 4.89734,2.76391 6.86719,4.06641 3.03991,2.01003 5.21581,2.44542 14.39258,2.88086 27.72042,1.31539 57.0557,-5.82351 102.02539,-24.83008 45.06758,-19.048 85.94535,-28.84348 136.65621,-32.74609 12.7391,-0.98038 15.0455,-0.92592 17.6329,0.41211 3.7349,1.93136 4.8982,5.9126 2.705,9.25976 -2.2128,3.37718 -4.3782,3.97018 -17.0508,4.66993 -43.43235,2.39827 -93.46721,13.88602 -130.44331,29.95117 -40.49911,17.59581 -70.28259,26.22769 -94.75,27.45898 -6.1875,0.31143 -11.25,0.70149 -11.25,0.86719 0,0.16554 1.31893,2.25393 2.92969,4.64062 1.61079,2.38674 4.81937,8.35677 7.13086,13.26758 5.71627,12.14434 8.08519,14.82664 17.80859,20.14844 9.43091,5.1617 9.34734,5.81971 -0.86914,6.8457 -3.65979,0.36775 -7.17128,0.98743 -7.80469,1.37891 -0.68118,0.42096 1.59607,2.10591 5.57618,4.12305 l 6.72851,3.41015 -7.5,0.68555 c -9.25912,0.84631 -15.18899,3.36518 -25.5,10.83398 -16.20389,11.73733 -19.42525,12.49995 -53,12.53907 -24.9239,0.0302 -25.02585,0.0191 -33.5,-2.8418 -14.05266,-4.74675 -25.79604,-11.29702 -35.37695,-19.73047 l -4.62305,-4.06836 -0.0254,6.33398 c -0.0151,3.99485 -0.90898,8.92176 -2.41406,13.33594 -1.31271,3.85002 -2.2079,7.17851 -1.99024,7.39844 0.2177,0.21997 5.91539,-0.17792 12.66211,-0.88477 19.48944,-2.04241 32.15902,-1.75434 38.97657,0.88672 3.30678,1.28104 6.8237,3.53787 8.36132,5.36524 2.35174,2.79488 2.58768,3.73186 2.06055,8.21679 -0.74702,6.35596 -0.21979,8.25508 9.59961,34.51758 20.35404,54.43805 41.96032,98.8353 54.27148,111.51758 6.03735,6.21929 14.19749,9.74356 22.49805,9.7168 3.02502,-0.0113 11.11341,-1.41744 17.97461,-3.12696 14.78619,-3.68409 20.1895,-3.94331 23.02539,-1.10742 2.51101,2.51105 2.58491,7.41513 0.14844,9.85156 -1.08072,1.08069 -4.0989,2.14006 -7.25,2.54493 -2.9692,0.38146 -9.89843,1.90977 -15.39844,3.39648 -14.6663,3.9645 -25.28775,3.76237 -35.74219,-0.68164 -4.5902,-1.95122 -9.80518,-5.14751 -12.81054,-7.84961 -13.85507,-12.45691 -35.43915,-54.63052 -56.94141,-111.26172 -9.36903,-24.67555 -14.00586,-38.96774 -14.00586,-43.16797 0,-2.84961 -0.53247,-4.04757 -2.19531,-4.9375 -3.03232,-1.62285 -26.2701,-0.58599 -44.94531,2.00586 l -14.63868,2.03321 -7.36132,5.55664 c -4.04799,3.05601 -11.07046,7.45849 -15.60547,9.7832 -4.53502,2.32471 -8.24751,4.71804 -8.25,5.32031 -0.002,0.60227 0.8321,1.85103 1.85351,2.77539 1.74376,1.57811 2.15203,1.55544 6.6875,-0.38867 2.65667,-1.13881 6.6809,-2.32465 8.94336,-2.63476 3.78743,-0.51912 4.36708,-0.27471 7.3125,3.08007 1.75945,2.00391 3.19922,4.03003 3.19922,4.50391 0,1.49469 -6.98932,7.07031 -8.86328,7.07031 -0.98604,0 -4.56143,1.12497 -7.94531,2.5 -3.38389,1.37499 -7.17342,2.49817 -8.42188,2.4961 -3.63084,-0.008 -8.28583,-3.44163 -12.84375,-9.47852 -3.92829,-5.20301 -4.45873,-5.56043 -7.33008,-4.94531 -1.70252,0.36472 -3.42061,0.85154 -3.8164,1.08398 -0.82553,0.48484 -1.00045,0.0908 19.21484,43.34375 20.73517,44.36519 31.13027,68.40765 36.0293,83.33399 4.53294,13.81092 6.33264,16.78502 11.85351,19.60156 6.31076,3.21948 14.6476,4.06445 40.15235,4.06445 22.62153,0 24.79828,0.15055 26.3164,1.82813 2.09307,2.3128 2.13839,7.54325 0.084,9.59765 -2.15157,2.15158 -3.70454,2.37223 -21.42969,3.04688 -27.1988,1.03525 -47.16405,-1.7735 -56.12305,-7.89649 -5.35676,-3.66107 -9.32787,-10.41682 -13.47265,-22.91992 -6.06104,-18.2835 -17.83068,-45.20626 -46.40625,-106.15625 -6.18868,-13.2 -11.30716,-24.07302 -11.375,-24.16211 -0.0677,-0.0892 -6.87302,0.16917 -15.12305,0.57422 -15.85489,0.77881 -31.51051,-0.87179 -41.375,-4.36328 -2.40665,-0.85183 -4.76913,-1.54883 -5.25,-1.54883 -2.02379,0 -0.83531,16.77706 2.09375,29.55274 7.10098,30.97232 17.9906,99.37093 27.53516,172.94726 l 3.63281,28 5.07617,9 c 7.17124,12.71358 15.87932,25.32483 20.6836,29.95313 4.47688,4.31285 5.20161,7.53407 2.54687,11.32422 -2.75915,3.93923 -7.666,3.02811 -13.60156,-2.52344 h -0.002 c -5.71124,-5.34281 -17.45502,-22.46603 -24.17968,-35.25391 -4.29676,-8.17088 -4.55331,-9.15819 -6.63477,-25.5 -7.33179,-57.5625 -22.28648,-155.2048 -25.88281,-169 -0.76146,-2.92093 -0.89279,-2.7799 -5,5.35156 -14.45979,28.62762 -40.5717,55.8104 -73.64258,76.66602 -20.81554,13.12702 -50.38359,25.63648 -73.5,31.0957 -14.44197,3.41065 -37.47509,4.3732 -48.08008,2.00782 -13.58643,-3.03035 -23.18339,-8.77532 -28.78515,-17.23243 -1.66564,-2.51463 -3.1702,-4.99495 -3.3418,-5.50976 -0.17159,-0.51481 -3.23285,1.91067 -6.80274,5.38867 -7.0428,6.86151 -12.20654,9.79686 -21.44921,12.18945 -11.71176,3.03175 -34.74564,1.3854 -38.60743,-2.75976 -2.54045,-2.72686 -2.4582,-7.17459 0.1836,-9.81641 1.94849,-1.94846 2.68726,-2.04835 9.25,-1.25 27.49028,3.34405 39.18876,-1.64079 48.81445,-20.80273 2.79592,-5.56585 4.05545,-9.80704 5.23242,-17.62696 4.78533,-31.79425 25.57117,-68.28429 56.4336,-99.06835 8.66448,-8.64246 11.52486,-12.33588 17.20312,-22.22071 l 6.81055,-11.85547 -8.86133,-6.5039 c -11.93728,-8.76174 -23.96761,-16.55274 -25.55664,-16.55274 -2.83418,0 -39.54262,42.24078 -92.55273,106.5 -23.69142,28.71889 -66.80376,82.10546 -71.17383,88.13672 -10.88204,15.01863 -30.58215,28.45585 -51.96485,35.44336 -13.077324,4.27347 -24.939531,5.91141 -42.867184,5.91602 -14.286663,0.004 -15.839319,-0.17217 -18.25,-2.06836 -1.887469,-1.48468 -2.634765,-3.00153 -2.634765,-5.34571 0,-6.12389 1.478701,-6.58127 22.601562,-6.98047 20.858253,-0.39416 30.248237,-2.15153 45.568357,-8.52929 13.13601,-5.46856 28.77831,-17.43252 36.70117,-28.07227 1.43344,-1.92499 14.96295,-18.79999 30.06641,-37.5 72.56949,-89.85021 115.95482,-140.65168 134.32422,-157.28515 4.55826,-4.12751 6.46666,-5.21485 9.14648,-5.21485 4.6792,0 14.74807,5.41818 29.5918,15.92383 9.26038,6.55404 12.78735,8.55215 13.60742,7.71094 1.11809,-1.1469 47.39631,-82.80332 51.03125,-90.04297 2.75268,-5.48251 7.41484,-7.86469 14.15235,-7.22852 2.91014,0.27478 6.73514,1.33978 8.5,2.36524 1.76485,1.02542 15.55123,16.12803 30.63476,33.5625 l 27.42383,31.69922 6.57617,-6.32618 c 3.61644,-3.47894 7.73476,-7.07649 9.15235,-7.99609 2.29908,-1.49151 2.71282,-2.72436 3.82812,-11.41992 1.94056,-15.13039 6.67931,-37.49899 10.15625,-47.93555 3.47524,-10.43142 10.96156,-22.70364 16.36133,-26.82226 4.31599,-3.29197 9.46777,-3.32711 12.70898,-0.0859 2.51271,2.51274 5.36599,10.06417 15.95313,42.22852 l 6.29883,19.13476 18.55664,0.51172 c 14.26465,0.39333 20.48346,0.99872 26.87695,2.61719 8.73211,2.21042 21.05733,7.45353 26.30664,11.1914 l 3.09961,2.20703 -0.86133,-3.39843 c -0.47403,-1.86879 -0.86328,-7.90834 -0.86328,-13.42188 0,-9.29696 0.23681,-10.50562 3.26172,-16.64648 6.03386,-12.24987 20.83085,-23.25949 36.73828,-27.33594 15.87507,-4.06817 36.82811,-3.65129 53.07422,1.05664 4.88542,1.41574 9.07449,2.76593 9.30859,3 0.23396,0.23395 1.79112,-1.48189 3.45899,-3.8125 22.35243,-31.23407 42.2402,-55.13214 66.625,-80.05859 28.81871,-29.45878 57.03548,-53.71219 82.27539,-70.71875 8.04,-5.41734 12.24758,-7.79249 15.16797,-7.85938 z M 544.75586,484.53906 c -1.53861,0 -4.80669,6.24602 -7.55664,14.44336 -4.15113,12.3741 -9.89175,42.55664 -8.09375,42.55664 0.36737,0 3.25251,-1.08897 6.41015,-2.41797 3.15761,-1.32903 10.00543,-3.63286 15.21876,-5.12109 5.21328,-1.48823 9.60205,-2.81099 9.75195,-2.93945 0.62385,-0.53469 -14.92581,-46.52149 -15.73047,-46.52149 z M 426.3125,514.07812 c -0.73076,0.0194 -1.13343,0.78687 -1.9375,2.68946 -0.76018,1.79875 -12.49223,22.79852 -26.07227,46.66601 -13.58005,23.86749 -24.45776,44.00498 -24.17187,44.75 0.82978,2.16238 2.61276,1.67315 14.68555,-4.02343 13.75039,-6.48817 26.63695,-10.89444 40.25,-13.76563 14.02303,-2.95771 33.84653,-2.93554 45.08789,0.0508 4.368,1.16036 8.22423,1.76856 8.56836,1.35157 1.15801,-1.40327 3.16298,-11.17161 2.50976,-12.22852 -2.37944,-3.85002 -55.18375,-63.78224 -57.09375,-64.80078 -0.83156,-0.44345 -1.38771,-0.70109 -1.82617,-0.68946 z"
       inkscape:transform-center-y="-2.0158062e-06"
       inkscape:transform-center-x="1.4942359e-06"
       style="fill:#333333;fill-opacity:1;stroke:none;stroke-width:3.77953;stroke-miterlimit:4;stroke-dasharray:none;stroke-opacity:0.92549;paint-order:markers fill stroke;stop-color:#000000"
       id="path1415" />
  </g>
</svg>
