<?xml version="1.0" encoding="UTF-8" standalone="no"?>
<svg
   xmlns:dc="http://purl.org/dc/elements/1.1/"
   xmlns:cc="http://creativecommons.org/ns#"
   xmlns:rdf="http://www.w3.org/1999/02/22-rdf-syntax-ns#"
   xmlns:svg="http://www.w3.org/2000/svg"
   xmlns="http://www.w3.org/2000/svg"
   xmlns:sodipodi="http://sodipodi.sourceforge.net/DTD/sodipodi-0.dtd"
   xmlns:inkscape="http://www.inkscape.org/namespaces/inkscape"
   inkscape:version="1.0 (4035a4fb49, 2020-05-01)"
   sodipodi:docname="ant.svg"
   viewBox="0 0 1008.5973 596.09289"
   height="596.0929"
   width="1008.5973"
   id="svg2"
   version="1.1">
  <metadata
     id="metadata8">
    <rdf:RDF>
      <cc:Work
         rdf:about="">
        <dc:format>image/svg+xml</dc:format>
        <dc:type
           rdf:resource="http://purl.org/dc/dcmitype/StillImage" />
        <dc:title />
      </cc:Work>
    </rdf:RDF>
  </metadata>
  <defs
     id="defs6" />
  <sodipodi:namedview
     inkscape:current-layer="g10"
     inkscape:window-maximized="0"
     inkscape:window-y="13"
     inkscape:window-x="1283"
     inkscape:cy="455.67066"
     inkscape:cx="810.95558"
     inkscape:zoom="0.13657515"
     showgrid="false"
     id="namedview4"
     inkscape:window-height="1032"
     inkscape:window-width="622"
     inkscape:pageshadow="2"
     inkscape:pageopacity="0"
     guidetolerance="10"
     gridtolerance="10"
     objecttolerance="10"
     borderopacity="1"
     bordercolor="#666666"
     pagecolor="#ffffff"
     inkscape:document-rotation="0" />
  <g
     transform="translate(53.00647,-197.21642)"
     id="g10"
     inkscape:label="Image"
     inkscape:groupmode="layer">
    <path
       style="fill:#000000"
       d="m 472.83416,788.37189 c -5.71087,-5.34185 -17.45624,-22.46559 -24.18125,-35.25417 -4.29674,-8.17089 -4.55365,-9.15822 -6.63512,-25.5 -7.33179,-57.56251 -22.28527,-155.20479 -25.88159,-169 -0.76147,-2.92092 -0.89329,-2.77984 -5.00049,5.35163 -14.45979,28.62761 -40.57131,55.81181 -73.64219,76.66746 -20.81554,13.12701 -50.38359,25.63631 -73.5,31.09551 -14.44197,3.41064 -37.47633,4.37191 -48.08132,2.00653 -13.58643,-3.03037 -23.18306,-8.77564 -28.78482,-17.23275 -1.66564,-2.51466 -3.16884,-4.99331 -3.34044,-5.50812 -0.1716,-0.51481 -3.23282,1.90962 -6.80271,5.38761 -7.04281,6.86151 -12.20814,9.79668 -21.45081,12.18927 -11.71176,3.03176 -34.74577,1.38501 -38.60756,-2.76014 -2.54045,-2.72685 -2.45652,-7.17282 0.18528,-9.81462 1.94849,-1.94849 2.68726,-2.04833 9.25,-1.25 27.49028,3.34406 39.18835,-1.64135 48.81404,-20.80328 2.79592,-5.56586 4.05451,-9.80641 5.23148,-17.62633 4.78533,-31.79426 25.57193,-68.28433 56.43436,-99.06838 8.66448,-8.64246 11.52414,-12.33645 17.2024,-22.22126 l 6.8104,-11.85566 -8.86084,-6.50368 c -11.93728,-8.76172 -23.96664,-16.55379 -25.55567,-16.55379 -2.83418,0 -39.54342,42.24078 -92.55354,106.5 -23.69142,28.71889 -66.803502,82.10707 -71.17357,88.13834 -10.88204,15.01862 -30.58251,28.45533 -51.9652,35.44287 -13.0773295,4.27347 -24.93897,5.91015 -42.86662,5.91477 -14.28666,0.004 -15.83931,-0.17231 -18.24999,-2.06856 -1.88747,-1.48468 -2.63486,-3.00082 -2.63486,-5.34501 0,-6.1239 1.47793,-6.58031 22.60079,-6.97949 20.8582505,-0.39417 30.24837046,-2.15184 45.568491,-8.52962 13.13601,-5.46854 28.778269,-17.43356 36.701129,-28.0733 1.43344,-1.925 14.963638,-18.8 30.067098,-37.5 72.569492,-89.85022 115.953672,-140.65035 134.323072,-157.2838 4.55826,-4.1275 6.46744,-5.2162 9.14727,-5.2162 4.6792,0 14.74841,5.41844 29.59214,15.9241 9.26038,6.55403 12.78689,8.55259 13.60696,7.71139 1.11809,-1.14691 47.39674,-82.80418 51.03168,-90.04385 2.75268,-5.4825 7.41503,-7.86341 14.15254,-7.22724 2.91014,0.27478 6.73514,1.33861 8.5,2.36405 1.76485,1.02545 15.54988,16.12903 30.63341,33.56351 l 27.42458,31.69907 6.57542,-6.3254 c 3.61647,-3.47897 7.73524,-7.07781 9.15281,-7.99743 2.29911,-1.4915 2.7124,-2.72458 3.82767,-11.42012 1.94059,-15.13042 6.68033,-37.49863 10.15728,-47.93521 3.47522,-10.43139 10.96047,-22.70301 16.36023,-26.82161 4.31602,-3.29199 9.46932,-3.32662 12.71052,-0.0854 2.5127,2.51271 5.36519,10.06362 15.95233,42.22797 l 6.29804,19.13379 18.55827,0.51171 c 14.26466,0.39332 20.48267,0.99885 26.87615,2.61729 8.73211,2.21044 21.05681,7.45387 26.30613,11.19172 l 3.09981,2.20726 -0.86192,-3.39779 c -0.47405,-1.86881 -0.86191,-7.90889 -0.86191,-13.42243 0,-9.29696 0.23674,-10.50524 3.26152,-16.64611 6.03386,-12.24986 20.83104,-23.2603 36.73848,-27.33676 15.87508,-4.06817 36.82831,-3.65083 53.07445,1.05711 4.88541,1.41574 9.07408,2.76559 9.30817,2.99967 0.23408,0.23409 1.79022,-1.48124 3.45809,-3.81184 22.3524,-31.23409 42.24149,-55.13327 66.6263,-80.05972 28.8187,-29.45878 57.0347,-53.71145 82.2746,-70.71801 12.864,-8.66774 15.9177,-9.54798 19.5841,-5.64526 4.3566,4.63741 2.6522,7.96346 -7.6052,14.84096 -50.2962,33.72306 -109.5394,93.16082 -148.06383,148.55008 l -2.22949,3.2055 3.28641,1.69773 c 1.80752,0.93375 4.89809,2.7634 6.86792,4.0659 3.03991,2.01004 5.21653,2.44575 14.39327,2.8812 27.72042,1.31536 57.05552,-5.82419 102.02522,-24.83077 45.0676,-19.04799 85.9451,-28.8431 136.656,-32.74571 12.7391,-0.98038 15.0454,-0.92656 17.6328,0.41147 3.7349,1.93136 4.8977,5.91255 2.7045,9.25971 -2.2128,3.37718 -4.3783,3.9703 -17.0509,4.67005 -43.4324,2.39826 -93.4663,13.88706 -130.4424,29.9522 -40.4991,17.5958 -70.2826,26.22696 -94.75001,27.45828 -6.1875,0.31139 -11.25,0.70173 -11.25,0.86742 0,0.1657 1.31791,2.25403 2.92868,4.64074 1.61077,2.38671 4.8199,8.35741 7.13139,13.26822 5.71626,12.14432 8.08574,14.82482 17.80914,20.1466 9.4309,5.16172 9.3473,5.81996 -0.8692,6.84596 -3.6598,0.36754 -7.1724,0.98854 -7.8058,1.37999 -0.6812,0.42099 1.597,2.10479 5.5771,4.12192 l 6.7287,3.41018 -7.5,0.68554 c -9.25912,0.84634 -15.189,3.36588 -25.50001,10.83468 -16.20389,11.73732 -19.42525,12.49942 -53,12.53855 -24.92393,0.029 -25.02586,0.0204 -33.5,-2.84202 -14.05267,-4.74675 -25.79579,-11.29576 -35.3767,-19.72922 l -4.6233,-4.06959 -0.0258,6.33498 c -0.0163,3.99483 -0.90748,8.92081 -2.41255,13.33499 -1.31271,3.85 -2.20865,7.17994 -1.99098,7.39988 0.21767,0.21993 5.91583,-0.17861 12.66256,-0.88564 19.48942,-2.04242 32.15777,-1.75413 38.97529,0.88695 3.30679,1.28104 6.82527,3.53866 8.36289,5.36602 2.35173,2.79487 2.58656,3.7318 2.05944,8.21672 -0.74702,6.35597 -0.21922,8.25357 9.60017,34.51607 20.35406,54.43802 41.96082,98.8354 54.27201,111.51767 6.03733,6.2193 14.19643,9.74323 22.49699,9.71647 3.02499,-0.01 11.11369,-1.41642 17.97489,-3.12593 14.7862,-3.68408 20.1892,-3.94413 23.0251,-1.10821 2.511,2.51104 2.585,7.41502 0.1485,9.85147 -1.0807,1.08069 -4.0989,2.14022 -7.25,2.54509 -2.9692,0.38149 -9.8985,1.91003 -15.3985,3.39675 -14.6663,3.96449 -25.28747,3.76175 -35.74189,-0.68224 -4.59022,-1.95123 -9.80536,-5.14619 -12.81073,-7.84828 -13.85507,-12.4569 -35.43886,-54.63157 -56.94111,-111.26279 -9.36903,-24.67553 -14.00628,-38.96774 -14.00628,-43.16798 0,-2.84962 -0.5322,-4.04648 -2.19506,-4.93641 -3.03231,-1.62284 -26.26975,-0.58554 -44.94496,2.0063 l -14.64002,2.03183 -7.35998,5.55637 c -4.04799,3.05601 -11.07044,7.45842 -15.60546,9.78313 -4.53501,2.32472 -8.24751,4.71952 -8.25,5.32177 -0.002,0.60226 0.83119,1.85132 1.85262,2.7757 1.74376,1.57809 2.15203,1.55429 6.68748,-0.38984 2.65669,-1.13879 6.68144,-2.32425 8.94388,-2.63435 3.78744,-0.51912 4.36712,-0.27499 7.31251,3.07963 1.75945,2.00389 3.19899,4.03117 3.19899,4.50505 0,1.49469 -6.98845,7.0688 -8.86239,7.0688 -0.98604,0 -4.56144,1.125 -7.94533,2.5 -3.3839,1.375 -7.17398,2.49832 -8.42241,2.49626 -3.63085,-0.006 -8.28607,-3.44129 -12.84397,-9.47818 -3.92828,-5.20298 -4.45906,-5.5611 -7.33041,-4.946 -1.70252,0.36471 -3.41931,0.8533 -3.81509,1.08575 -0.82552,0.48483 -1.00088,0.0893 19.21441,43.34217 20.73515,44.36519 31.13015,68.40869 36.02917,83.33502 4.53293,13.81091 6.3314,16.78531 11.85227,19.60185 6.31073,3.21949 14.64767,4.06313 40.15242,4.06313 22.62153,0 24.79824,0.15126 26.31634,1.82874 2.09307,2.31282 2.13943,7.54396 0.0851,9.59833 -2.15159,2.1516 -3.70491,2.37246 -21.43007,3.04712 -27.19877,1.03524 -47.16307,-1.77394 -56.12206,-7.89693 -5.35677,-3.66107 -9.32861,-10.418 -13.47339,-22.92108 -6.06102,-18.28349 -17.83018,-45.20621 -46.40579,-106.15618 -6.18866,-13.2 -11.3076,-24.0729 -11.37545,-24.16201 -0.0678,-0.0891 -6.87335,0.16954 -15.12335,0.57478 -15.85492,0.77878 -31.51121,-0.87254 -41.37573,-4.36401 -2.40665,-0.85182 -4.76915,-1.54876 -5.25,-1.54876 -2.02379,0 -0.83499,16.77729 2.09407,29.55297 7.10098,30.97232 17.99091,99.37071 27.53546,172.94703 l 3.63225,28 5.07654,9 c 7.17122,12.71359 15.87986,25.32466 20.68414,29.95295 4.47689,4.31288 5.20131,7.53437 2.54657,11.32454 -2.75931,3.93947 -7.66661,3.02915 -13.60266,-2.52332 z M 295.09728,475.74036 c 13.75039,-6.48817 26.63668,-10.8958 40.24973,-13.76702 14.02303,-2.9577 33.84702,-2.9353 45.08836,0.051 4.36801,1.16036 8.22338,1.76857 8.56748,1.35158 1.158,-1.40326 3.16226,-11.17149 2.50905,-12.22841 -2.37944,-3.85001 -55.18213,-63.78161 -57.09213,-64.80016 -2.2175,-1.18253 -2.47797,-1.04415 -3.76448,2 -0.76018,1.79874 -12.49309,22.79837 -26.07313,46.66586 -13.58005,23.86749 -24.45709,44.00499 -24.1712,44.75 0.82978,2.16238 2.61353,1.67379 14.68632,-4.0228 z m 146.69763,-65.03904 c 3.15761,-1.32903 10.00655,-3.63405 15.21986,-5.12228 5.21331,-1.48823 9.60139,-2.81099 9.75129,-2.93947 0.62386,-0.53471 -14.92595,-46.52184 -15.73062,-46.52184 -1.5386,0 -4.80686,6.24711 -7.55682,14.44446 -4.15113,12.37408 -9.89064,42.55553 -8.09265,42.55553 0.3673,0 3.25132,-1.08738 6.40894,-2.4164 z"
       id="path884" />
  </g>
</svg>
