<?xml version="1.0" encoding="UTF-8" standalone="no"?>
<svg
   xmlns:dc="http://purl.org/dc/elements/1.1/"
   xmlns:cc="http://creativecommons.org/ns#"
   xmlns:rdf="http://www.w3.org/1999/02/22-rdf-syntax-ns#"
   xmlns:svg="http://www.w3.org/2000/svg"
   xmlns="http://www.w3.org/2000/svg"
   xmlns:sodipodi="http://sodipodi.sourceforge.net/DTD/sodipodi-0.dtd"
   xmlns:inkscape="http://www.inkscape.org/namespaces/inkscape"
   inkscape:export-ydpi="96.099998"
   inkscape:export-xdpi="96.099998"
   inkscape:export-filename="/home/ali/Code/HiveMind/src/assets/orange_grass_hopper.png"
   inkscape:version="1.0 (4035a4fb49, 2020-05-01)"
   sodipodi:docname="black_grass_hopper.svg"
   viewBox="0 0 1134.5704 1310.0899"
   height="1310.0898"
   width="1134.5703"
   id="svg2"
   version="1.1">
  <metadata
     id="metadata8">
    <rdf:RDF>
      <cc:Work
         rdf:about="">
        <dc:format>image/svg+xml</dc:format>
        <dc:type
           rdf:resource="http://purl.org/dc/dcmitype/StillImage" />
        <dc:title></dc:title>
      </cc:Work>
    </rdf:RDF>
  </metadata>
  <defs
     id="defs6" />
  <sodipodi:namedview
     inkscape:current-layer="g10"
     inkscape:window-maximized="0"
     inkscape:window-y="13"
     inkscape:window-x="963"
     inkscape:cy="655.04514"
     inkscape:cx="567.28512"
     inkscape:zoom="0.17086161"
     showgrid="false"
     id="namedview4"
     inkscape:window-height="1032"
     inkscape:window-width="942"
     inkscape:pageshadow="2"
     inkscape:pageopacity="0"
     guidetolerance="10"
     gridtolerance="10"
     objecttolerance="10"
     borderopacity="1"
     bordercolor="#666666"
     pagecolor="#ffffff"
     inkscape:document-rotation="0" />
  <g
     transform="translate(34.40545,192.08915)"
     id="g10"
     inkscape:label="Image"
     inkscape:groupmode="layer">
    <path
       transform="translate(-34.40545,-192.08915)"
       d="M 567.28516 0 L 0 327.52344 L 0 982.56641 L 567.28516 1310.0898 L 1134.5703 982.56641 L 1134.5703 327.52344 L 567.28516 0 z M 540.85156 342.65234 C 544.54504 342.75115 544.68239 346.68189 542.21094 354.46875 C 533.60589 381.58084 471.35715 401.35854 362.08984 411.69727 C 282.86702 419.19322 268.74749 424.14462 241.12695 454.10938 C 219.87589 477.16406 209.14062 499.22565 209.14062 519.84961 C 209.14062 539.51649 214.64218 537.11987 224.49609 513.1582 C 236.67804 483.53543 270.75535 449.36642 303.30469 434.13672 C 330.08827 421.60478 332.61194 421.29383 392.875 423.13672 C 521.59378 427.07302 535.7649 426.40946 560.16602 415.28906 C 572.59684 409.62393 589.85648 396.70513 598.52148 386.58203 C 614.40945 368.02047 634.79132 354.63672 647.17188 354.63672 C 654.72133 354.63672 657.29891 367.81766 661.7832 429.35352 L 664.71875 469.61914 L 695.99805 422.46484 C 730.82676 369.95851 752.7749 345.45117 764.9707 345.45117 C 769.44373 345.45117 777.91589 349.34726 783.79688 354.10938 C 796.36226 364.28422 797.07382 385.02154 786.20508 424.22656 C 775.35609 463.36037 773.26673 511.68407 778.58594 600.38086 C 781.31305 645.85485 784.60617 688.22909 785.9043 694.54492 C 787.78669 703.70353 798.68881 711.48942 839.75781 733.00781 C 901.04114 765.1176 964.93192 806.445 968.77539 816.46094 C 972.65175 826.56256 961.81857 841.24082 936.2168 860.57227 C 902.98941 885.6617 878.85096 896.20216 841.21875 902.05273 C 807.18886 907.34324 807.09366 907.39731 811.36523 919.23047 C 822.88954 951.15533 822.46944 950.90704 865.38867 951.15039 C 908.82626 951.39659 951.77408 962.0713 930.29492 967.2832 C 890.7036 976.8898 872.92566 979.11855 835.07031 979.21875 L 792.66992 979.33008 L 789.8125 966.69922 C 782.98175 936.49176 774.64607 904.87511 773.29297 904.04688 C 772.4856 903.55273 757.3562 898.87667 739.67188 893.65625 C 721.98754 888.43584 703.89961 882.61989 699.47852 880.73047 C 692.19635 877.61831 691.44141 880.84673 691.44141 915.04492 L 691.44141 952.79297 L 708.09766 949.66797 C 725.02717 946.492 751.1543 953.75036 751.1543 961.62891 C 751.1543 968.68971 728.7635 974.73828 702.625 974.73828 C 665.71499 974.73828 660.389 967.57699 659.97266 917.4082 C 659.79031 895.42391 658.3787 873.46036 656.83594 868.59961 C 655.29322 863.7388 643.32862 852.75126 630.24805 844.18359 C 617.16752 835.61597 598.90594 823.05441 589.66797 816.26758 L 572.87109 803.92773 L 563.51172 813.28711 C 548.47954 828.31929 524.63738 830.51667 504.63477 818.71484 C 493.57359 812.18858 489.71609 811.19294 493.59375 815.86523 C 502.62989 826.75313 527.23374 840.86514 558.63672 853.17188 C 597.70278 868.48177 617.17843 884.67282 629.86719 912.38867 C 640.49327 935.5991 645.56711 977.27476 639.05078 987.81836 C 634.64531 994.94656 605.46593 994.58424 602.85352 987.36914 C 601.7101 984.21124 601.85604 970.49444 603.17773 956.88672 C 607.14945 916.00104 589.16196 894.43169 537.56445 878.21484 C 499.10877 866.1284 481.12263 853.35741 435.36328 805.64453 C 402.16819 771.0323 389.63699 760.3674 392.875 769.48438 C 418.41087 841.3829 327.48099 978.64307 253.92578 979.23047 C 236.33758 979.37097 238.20481 974.90619 263.48633 956.36523 C 316.69072 917.34625 369.9082 839.02826 369.9082 799.74805 C 369.9082 784.0445 356.25545 735.83269 351.84375 735.95703 C 350.41036 735.99833 340.0886 755.786 328.90625 779.93164 C 289.29868 865.45486 223.62264 952.18712 188.29883 965.61719 C 172.86819 971.48389 158.61523 971.40522 158.61523 965.45312 C 158.61523 962.87252 176.9282 942.71909 199.3125 920.66797 C 236.25447 884.27587 267.0769 839.7232 308.31055 763.11523 C 309.08806 761.67072 299.41523 765.59012 286.81445 771.82617 C 266.36636 781.94583 261.98608 782.59058 246.06445 777.82031 C 228.1025 772.43881 186.17383 731.95513 186.17383 719.99414 C 186.17383 716.85414 181.10945 704.75784 174.91797 693.11328 C 157.34637 660.06562 152.80427 638.07924 158.84766 615.30859 C 164.68873 593.30021 179.26917 575.11719 191.07617 575.11719 C 200.67551 575.11719 205.19198 565.16214 199.59961 556.32812 C 193.75618 547.09754 194.4058 505.79922 200.68359 487.38086 C 208.90618 463.25669 230.95429 433.61896 250.10547 420.94531 C 268.50115 408.77162 328.50986 396.57477 417.25586 386.97266 C 465.8772 381.71194 483.95949 375.77073 518.16016 353.82422 C 529.90819 346.28553 537.15808 342.55354 540.85156 342.65234 z M 743.66016 396.77344 C 732.82506 396.56489 721.48109 412.94999 677.81055 488.9082 C 654.18129 530.00762 613.1535 597.73933 586.63867 639.42383 C 532.21249 724.98835 507.70703 767.96078 507.70703 777.83594 C 507.70703 786.02374 516.67271 795.59766 524.33984 795.59766 C 527.42459 795.59766 548.38049 768.21025 570.9082 734.73633 C 628.12891 649.71212 722.45919 495.89569 738.81445 460.94531 C 754.58272 427.24925 757.63472 399.43675 745.83008 397.02344 C 745.10284 396.87476 744.3825 396.78734 743.66016 396.77344 z M 565.74414 430.25 C 562.49031 430.25432 550.8277 432.63529 537.56445 436.06445 C 513.70306 442.23373 500.14209 442.46374 436.51172 437.77148 C 335.91517 430.35323 307.3233 437.84233 268.81641 481.69922 C 256.12821 496.15027 241.29492 522.93247 241.29492 531.38867 C 241.29492 532.76283 249.43868 532.58391 259.39258 530.99219 C 280.69262 527.58618 314.77979 541.77949 327.56836 559.37891 C 336.61623 571.83043 341.60414 573.21074 345.05469 564.21875 C 349.57153 552.44808 393.26899 532.32866 413.64648 532.63672 C 432.36176 532.91962 473.90466 550.27908 490.22266 564.63477 C 497.28066 570.84401 498.61771 570.05115 504.67383 556.07227 C 521.73677 516.68709 546.82345 465.53913 556.9375 449.51562 C 563.06801 439.80318 567.41745 431.2006 566.60352 430.39844 C 566.50177 430.29817 566.20897 430.24938 565.74414 430.25 z M 626.70898 457.80469 C 621.61181 458.02544 585.03498 543.62659 574.55273 580.16211 C 570.49498 594.30518 568.51903 609.3803 570.16211 613.66211 C 571.80519 617.94392 573.80656 620.7911 574.60938 619.98828 C 575.41219 619.18546 589.401 596.54058 605.69727 569.66602 L 635.32812 520.80273 L 632.88867 490.41992 C 631.54733 473.70946 628.86497 459.05666 626.92773 457.85938 C 626.86292 457.81932 626.78989 457.80118 626.70898 457.80469 z M 732.04883 523.46875 L 707.15234 560.65625 C 682.99871 596.73307 682.25391 598.79393 682.25391 629.63086 L 682.25391 661.41797 L 710.96289 673.16406 C 743.86796 686.6268 746.56055 687.17475 746.56055 680.40625 C 746.56055 670.95386 737.19428 563.52308 734.62891 543.55078 L 732.04883 523.46875 z M 262.73047 553.52344 C 251.0439 553.82859 239.40175 558.92972 227.66602 568.80469 C 174.88109 613.22029 182.96792 723.73554 241.29492 755.07227 C 260.17614 765.21637 273.82808 763.08992 295.44727 746.63867 C 318.91216 728.78296 333.07081 703.60241 338.67969 669.75391 C 345.10571 630.97415 339.69203 611.39022 314.69336 582.99023 C 296.98728 562.87507 279.81083 553.07744 262.73047 553.52344 z M 407.21484 559.08984 C 380.39827 559.04524 377.0935 560.13921 368.17188 572.02148 C 359.52528 583.53746 358.42383 591.10863 358.42383 639.08984 C 358.42383 677.61378 360.34501 696.76038 365.09961 705.63672 C 377.90193 729.53735 434.24383 761.9715 464.89062 763.08203 C 472.63004 763.36268 482.85214 751.86191 509.99414 712.33789 C 544.02094 662.78829 544.91409 660.79739 539.33008 646.88477 C 531.34021 626.97788 485.17096 582.98979 458.59375 569.96289 C 442.47014 562.05986 428.60519 559.1255 407.21484 559.08984 z M 252.77734 570.55859 C 267.09809 570.55859 290.62298 587.03447 298.75586 602.76172 C 302.81483 610.6109 306.36726 627.27332 306.65234 639.78906 C 307.09078 659.03738 305.10278 664.72079 293.75391 676.6582 C 268.14509 703.59507 232.06606 712.58254 217.33398 695.69336 C 197.13942 672.54186 192.214 630.97174 206.41211 603.51562 C 214.88039 587.13978 238.20657 570.55859 252.77734 570.55859 z M 252.77734 593.49023 C 249.34874 593.49023 243.29892 596.73428 239.33398 600.69922 C 229.20254 610.83066 238.88955 627.89658 255.89453 629.875 C 257.60883 630.07444 262.26052 626.98949 266.23047 623.01953 C 270.20042 619.04958 273.44727 614.03066 273.44727 611.86523 C 273.44727 605.71667 259.69446 593.49023 252.77734 593.49023 z M 639.80078 673.91797 C 633.53409 673.90092 628.09963 682.35778 612.1875 714.04297 C 579.25197 779.6263 579.04885 776.81999 618.69727 804.80469 C 655.59298 830.84645 703.88916 856.639 739.67188 869.41016 C 770.19118 880.30279 770.65793 880.23964 767.67773 865.64648 C 765.28327 853.92136 752.89688 754.86357 750.09375 725.02344 C 748.93738 712.71331 745.72686 710.75166 700.23242 694.56641 C 673.48848 685.05183 647.54002 675.9777 642.57031 674.40039 C 641.60821 674.09503 640.69602 673.9204 639.80078 673.91797 z M 792.40234 733.28125 C 787.88742 733.01315 787.90039 736.94838 787.90039 743.23633 C 787.90039 758.7126 801.3187 868.73046 804.29297 877.64258 C 806.90355 885.46489 836.26261 881.68811 874.13477 868.6582 C 902.49943 858.8993 933.03549 839.79293 939.46289 827.7832 C 942.78382 821.57803 931.26294 812.88925 873.73438 778.2168 C 820.03076 745.84958 799.92722 733.72808 792.40234 733.28125 z "
       inkscape:transform-center-y="-2.0158062e-06"
       inkscape:transform-center-x="1.4942359e-06"
       style="fill:#333333;fill-opacity:1;stroke:none;stroke-width:3.77953;stroke-miterlimit:4;stroke-dasharray:none;stroke-opacity:0.92549;paint-order:markers fill stroke;stop-color:#000000"
       id="path1415" />
  </g>
</svg>
