<?xml version="1.0" encoding="UTF-8" standalone="no"?>
<svg
   xmlns:dc="http://purl.org/dc/elements/1.1/"
   xmlns:cc="http://creativecommons.org/ns#"
   xmlns:rdf="http://www.w3.org/1999/02/22-rdf-syntax-ns#"
   xmlns:svg="http://www.w3.org/2000/svg"
   xmlns="http://www.w3.org/2000/svg"
   xmlns:sodipodi="http://sodipodi.sourceforge.net/DTD/sodipodi-0.dtd"
   xmlns:inkscape="http://www.inkscape.org/namespaces/inkscape"
   inkscape:export-ydpi="96.099998"
   inkscape:export-xdpi="96.099998"
   inkscape:export-filename="/home/ali/Code/HiveMind/src/assets/black_bee.png"
   inkscape:version="1.0 (4035a4fb49, 2020-05-01)"
   sodipodi:docname="orange_beetle.svg"
   viewBox="0 0 1134.5704 1310.0899"
   height="1310.0898"
   width="1134.5703"
   id="svg2"
   version="1.1">
  <metadata
     id="metadata8">
    <rdf:RDF>
      <cc:Work
         rdf:about="">
        <dc:format>image/svg+xml</dc:format>
        <dc:type
           rdf:resource="http://purl.org/dc/dcmitype/StillImage" />
        <dc:title></dc:title>
      </cc:Work>
    </rdf:RDF>
  </metadata>
  <defs
     id="defs6" />
  <sodipodi:namedview
     inkscape:current-layer="g10"
     inkscape:window-maximized="0"
     inkscape:window-y="13"
     inkscape:window-x="963"
     inkscape:cy="655.04514"
     inkscape:cx="567.28512"
     inkscape:zoom="0.17086161"
     showgrid="false"
     id="namedview4"
     inkscape:window-height="1032"
     inkscape:window-width="942"
     inkscape:pageshadow="2"
     inkscape:pageopacity="0"
     guidetolerance="10"
     gridtolerance="10"
     objecttolerance="10"
     borderopacity="1"
     bordercolor="#666666"
     pagecolor="#ffffff"
     inkscape:document-rotation="0" />
  <g
     transform="translate(34.40545,192.08915)"
     id="g10"
     inkscape:label="Image"
     inkscape:groupmode="layer">
    <path
       transform="translate(-34.40545,-192.08915)"
       d="M 567.28516 0 L 0 327.52344 L 0 982.56641 L 567.28516 1310.0898 L 1134.5703 982.56641 L 1134.5703 327.52344 L 567.28516 0 z M 478.52734 245.77148 C 480.08212 245.80148 481.17054 246.31575 482.06445 247.24219 C 485.44347 250.74424 483.14116 254.03773 473.52148 259.46289 C 464.0675 264.79503 460.9116 270.98198 462.40039 281.27344 C 463.92143 291.78327 462.52293 294.45553 450.35156 304.2832 C 429.40314 321.19739 422.12986 336.31404 413.39062 381.09766 C 404.78296 425.20551 405.67956 434.01775 422.51172 470.68359 C 432.29546 491.9983 439.3457 512.46327 439.3457 519.54883 C 439.3457 522.1065 439.86444 523.07379 440.74414 522.15625 C 441.94535 520.90383 465.96383 476.86868 486.50781 438.25391 L 492.79102 426.44336 L 487.17969 424.7168 C 484.09324 423.76731 471.90068 422.38061 460.08594 421.63477 C 448.27096 420.88893 436.0426 419.50154 432.91016 418.55273 C 424.63437 416.0471 416.97726 408.25346 416.81055 402.16602 C 416.64809 396.20528 420.65039 389.41406 424.32617 389.41406 C 425.80541 389.41406 433.20625 394.03687 440.77344 399.68555 L 454.53125 409.95703 L 476.80078 411.61328 C 499.00227 413.26585 499.08551 413.26 504.48828 409.62891 C 510.44337 405.62717 518.63888 394.08033 520.15234 387.55859 C 522.31123 378.25412 527.88571 378.19088 532.49609 387.41992 C 534.0993 390.62841 539.46133 397.37749 544.41406 402.41797 L 553.41797 411.58203 L 562.42383 402.41797 C 567.37656 397.37749 572.73859 390.62841 574.3418 387.41992 C 578.95218 378.19088 584.52666 378.25412 586.68555 387.55859 C 588.19901 394.08033 596.39452 405.62717 602.34961 409.62891 C 607.75238 413.26 607.83562 413.26585 630.03711 411.61328 L 652.30664 409.95703 L 666.06445 399.68555 C 673.63164 394.03687 681.03248 389.41406 682.51172 389.41406 C 686.18747 389.41406 690.1898 396.20528 690.02734 402.16602 C 689.86063 408.25346 682.20352 416.0471 673.92773 418.55273 C 670.79529 419.50154 658.56668 420.88893 646.75195 421.63477 C 634.93721 422.38061 622.74465 423.76731 619.6582 424.7168 L 614.04688 426.44336 L 620.33008 438.25391 C 640.87406 476.86868 664.89254 520.90383 666.09375 522.15625 C 666.97345 523.07379 667.49219 522.10857 667.49219 519.54883 C 667.49219 512.46327 674.54243 491.9983 684.32617 470.68359 C 701.19829 433.93056 702.10544 425.01401 693.44336 380.99023 C 684.62379 336.16553 677.41125 321.17792 656.55664 304.33984 C 650.37822 299.35138 644.90875 293.92122 644.4043 292.27344 C 643.89963 290.62564 643.90131 285.72516 644.4082 281.38281 C 645.68106 270.48456 642.36924 264.09405 632.78516 258.9668 C 623.72443 254.11902 621.40603 250.73008 624.77148 247.24219 C 627.63077 244.2783 632.47855 245.538 648.23242 253.34375 C 666.27609 262.28422 667.70065 264.60927 697.31445 333.37109 C 711.86228 367.15135 724.43164 394.61838 725.24414 394.41016 C 726.05665 394.20194 732.11742 389.88458 738.71484 384.81445 C 745.31232 379.74436 751.57115 375.5957 752.62305 375.5957 C 759.22798 375.5957 758.89335 386.52186 751.76562 403.5293 C 749.39743 409.18091 746.17174 420.23553 744.59766 428.0957 C 732.99991 486.01011 713.05048 524.44873 679.37305 553.76562 C 674.00263 558.44079 667.09661 563.87374 664.02734 565.83984 C 660.95807 567.80595 658.70967 569.68817 659.03125 570.02148 C 659.35285 570.3548 670.05661 573.70372 682.81641 577.46484 C 711.56478 585.93933 722.87289 590.81119 738.75586 601.56836 C 770.94053 623.36477 787.37522 648.63516 787.51953 676.54688 C 787.59033 689.93762 789.57204 695.73896 799.3418 711.0957 C 804.37977 719.01358 810.2679 729.85296 812.42578 735.18359 C 816.00937 744.03672 816.35039 746.66835 816.36523 765.60352 C 816.37623 781.94657 815.77376 788.28181 813.51172 795.54492 L 810.64062 804.75977 L 809.48828 792.65039 C 806.5189 761.44327 797.47825 746.28725 749.21289 691.59766 C 732.1466 672.25972 722.38943 657.9974 717.15234 644.73242 C 715.0066 639.29786 713.34088 636.75007 712.85547 638.16016 C 712.41974 639.42711 711.41234 650.13796 710.61719 661.96094 C 707.38382 710.0051 715.22623 731.5183 743.33789 751.7207 C 750.48956 756.85995 751.71523 758.67644 757.94141 773.36719 C 761.67968 782.18717 771.96768 805.13308 780.80273 824.35742 C 794.9352 855.10898 797.64965 859.97624 803.39648 864.85742 C 814.01002 873.87103 814.51679 880.68409 805.32031 890.74414 C 802.56511 893.75812 797.65871 904.64174 791.12891 922.22266 C 766.31192 989.03376 752.63772 1015.039 736.36719 1026.3711 C 730.69739 1030.3202 728.04416 1031.2779 724.69727 1030.584 C 711.67297 1027.884 714.26792 1015.7032 730.32227 1004.1738 C 738.22091 998.50163 739.4642 996.60794 757.35938 962.99414 C 768.83159 941.44564 775.43573 927.5253 774.36328 927.1543 C 769.74593 925.5593 758.10122 915.90023 753.82617 910.11914 C 745.98115 899.51174 744.5293 891.57578 744.5293 859.3125 C 744.5293 828.12765 742.9329 817.81981 736.45898 807.19141 C 731.76009 799.47679 729.97416 798.40932 729.07812 802.77734 C 713.11414 880.57582 692.73538 923.73227 658.66406 951.88867 C 632.20025 973.75767 599.44235 983.64062 553.41797 983.64062 C 541.10064 983.64062 526.22898 982.89412 520.36914 981.98242 C 474.18245 974.79442 442.38591 954.81386 417.93359 917.61523 C 404.49291 897.16815 390.18497 859.64847 383.0957 826.25586 C 376.63541 795.82752 376.9816 796.34665 370.37695 807.19141 C 363.90303 817.81981 362.30859 828.12765 362.30859 859.3125 C 362.30859 891.57578 360.85479 899.51174 353.00977 910.11914 C 348.75284 915.87629 337.09591 925.55843 332.51562 927.14062 C 331.49915 927.49153 338.40048 942.04817 349.50781 962.98047 C 367.38793 996.67677 368.57564 998.48993 376.50195 1004.1738 C 392.56659 1015.6933 395.16873 1027.8831 382.13867 1030.584 C 378.79178 1031.2779 376.13872 1030.3202 370.46875 1026.3711 C 354.19822 1015.039 340.52401 989.03376 315.70703 922.22266 C 309.17722 904.64174 304.27083 893.75812 301.51562 890.74414 C 292.31916 880.68409 292.82593 873.87103 303.43945 864.85742 C 309.18629 859.97624 311.90269 855.10898 326.03516 824.35742 C 334.87021 805.13308 345.15624 782.18717 348.89453 773.36719 C 355.12069 758.67644 356.34638 756.85995 363.49805 751.7207 C 391.62218 731.50944 399.71054 709.20995 396.25977 661.39453 C 395.42873 649.88347 394.3978 639.42711 393.96875 638.16016 C 393.49403 636.7594 391.81446 639.33543 389.68359 644.73242 C 384.33574 658.27869 373.8539 673.52199 356.54297 692.92969 C 310.54589 744.49551 300.27872 761.72522 297.38672 792.19727 L 296.19531 804.75977 L 293.32617 795.54492 C 291.06434 788.28209 290.46017 781.94595 290.47266 765.60352 C 290.48476 746.66835 290.82851 744.03672 294.41211 735.18359 C 296.56999 729.85296 302.45617 719.01358 307.49414 711.0957 C 317.2639 695.73896 319.24965 689.93761 319.31836 676.54688 C 319.46267 648.63517 335.89736 623.36477 368.08203 601.56836 C 383.965 590.81119 395.27311 585.93933 424.02148 577.46484 C 436.78128 573.70372 447.46202 570.37632 447.75781 570.07031 C 448.05289 569.76427 445.44793 567.58676 441.96875 565.23047 C 438.48887 562.87347 431.64114 557.42706 426.75195 553.12891 C 393.52501 523.91665 373.75549 485.59806 362.24023 428.0957 C 360.66615 420.23553 357.4385 409.18091 355.07031 403.5293 C 347.94259 386.52186 347.60796 375.5957 354.21289 375.5957 C 355.26479 375.5957 361.52361 379.74436 368.12109 384.81445 C 374.71847 389.88458 380.78124 394.20194 381.59375 394.41016 C 382.40625 394.61838 394.97188 367.19365 409.51758 333.4668 C 439.14688 264.76569 440.70429 262.22238 458.60352 253.34766 C 469.42912 247.98029 475.10683 245.7055 478.52734 245.77148 z "
       inkscape:transform-center-y="-2.0158062e-06"
       inkscape:transform-center-x="1.4942359e-06"
       style="fill:#ff8c42;fill-opacity:1;stroke:none;stroke-width:3.77953;stroke-miterlimit:4;stroke-dasharray:none;stroke-opacity:0.92549;paint-order:markers fill stroke;stop-color:#000000"
       id="path1415" />
  </g>
</svg>
