<?xml version="1.0" encoding="UTF-8" standalone="no"?>
<svg
   xmlns:dc="http://purl.org/dc/elements/1.1/"
   xmlns:cc="http://creativecommons.org/ns#"
   xmlns:rdf="http://www.w3.org/1999/02/22-rdf-syntax-ns#"
   xmlns:svg="http://www.w3.org/2000/svg"
   xmlns="http://www.w3.org/2000/svg"
   xmlns:sodipodi="http://sodipodi.sourceforge.net/DTD/sodipodi-0.dtd"
   xmlns:inkscape="http://www.inkscape.org/namespaces/inkscape"
   inkscape:export-ydpi="96.099998"
   inkscape:export-xdpi="96.099998"
   inkscape:export-filename="/home/ali/Code/HiveMind/src/assets/orange_ant.png"
   inkscape:version="1.0 (4035a4fb49, 2020-05-01)"
   sodipodi:docname="orange_bee.svg"
   viewBox="0 0 1134.5704 1310.0899"
   height="1310.0898"
   width="1134.5703"
   id="svg2"
   version="1.1">
  <metadata
     id="metadata8">
    <rdf:RDF>
      <cc:Work
         rdf:about="">
        <dc:format>image/svg+xml</dc:format>
        <dc:type
           rdf:resource="http://purl.org/dc/dcmitype/StillImage" />
        <dc:title></dc:title>
      </cc:Work>
    </rdf:RDF>
  </metadata>
  <defs
     id="defs6" />
  <sodipodi:namedview
     inkscape:current-layer="g10"
     inkscape:window-maximized="0"
     inkscape:window-y="13"
     inkscape:window-x="963"
     inkscape:cy="578.26779"
     inkscape:cx="792.4277"
     inkscape:zoom="0.17086161"
     showgrid="false"
     id="namedview4"
     inkscape:window-height="1032"
     inkscape:window-width="942"
     inkscape:pageshadow="2"
     inkscape:pageopacity="0"
     guidetolerance="10"
     gridtolerance="10"
     objecttolerance="10"
     borderopacity="1"
     bordercolor="#666666"
     pagecolor="#ffffff"
     inkscape:document-rotation="0" />
  <g
     transform="translate(259.54803,115.31181)"
     id="g10"
     inkscape:label="Image"
     inkscape:groupmode="layer">
    <path
       transform="translate(-87.563651,-113.90751)"
       d="M 395.30078,-1.4042969 -171.98438,326.11914 V 981.16211 L 395.30078,1308.6855 962.58594,981.16211 V 326.11914 Z M 506.78906,134.43164 c 6.90235,-0.019 12.54285,3.56051 17.38086,10.76367 2.38605,3.553 2.98633,5.66992 2.98633,10.54102 0,7.8671 -3.95436,14.37144 -12.62891,20.77734 -21.5884,15.9418 -34.58083,36.77193 -36.94726,59.23633 -0.58217,5.5321 -1.06769,14.92158 -1.07813,20.86328 l -0.0215,10.80274 12.4082,6.17578 c 25.82547,12.8555 40.35783,23.31642 62.35352,44.88672 23.44031,22.9871 36.67753,41.10048 49.32031,67.48828 15.90757,33.2016 21.77283,57.44458 23.2207,95.95508 l 0.73047,19.40624 19.51172,8.01758 c 103.47018,42.5226 164.27909,75.42503 193.62109,104.76563 21.66045,21.6575 43.00815,64.28584 47.99414,95.83594 2.3661,14.9786 3.3797,53.99322 1.7129,65.92382 -7.6675,54.7235 -38.87027,104.32006 -84.19727,133.81836 -36.00921,23.435 -76.88618,33.34834 -123.55664,29.96094 -29.09023,-2.1116 -49.70292,-7.40757 -71.58594,-18.38867 -6.06138,-3.0417 -11.61308,-5.30339 -12.33789,-5.02539 -0.72451,0.2785 -5.1202,7.95118 -9.76758,17.05078 -26.52908,51.9435 -54.90593,92.14669 -88.91797,125.97459 -26.77719,26.6338 -50.59725,43.2095 -77.38085,53.8477 l -8.89649,3.539 v 23.7735 c 0,35.5842 -1.67009,41.74 -12.86133,47.414 -6.44465,3.2628 -10.39199,3.5726 -16.56445,1.3086 h 0.006 c -6.52249,-2.398 -10.57996,-5.8774 -12.86524,-11.041 -2.0766,-4.6938 -3.40461,-20.8973 -4.34375,-52.9609 l -0.26562,-9.0586 -9.93359,-3.9805 c -28.58908,-11.4712 -65.57355,-40.1103 -93.30665,-72.248 -28.91846,-33.5137 -46.7231,-60.58692 -68.59374,-104.30862 -5.41302,-10.8221 -10.13355,-19.67579 -10.48829,-19.67579 -0.35599,0 -8.7236,3.44977 -18.59375,7.66797 -28.09958,12.0079 -44.10583,15.37513 -79.398434,16.70703 -21.92557,0.8268 -33.26595,-0.35248 -53.02539,-5.52148 -48.169241,-12.601 -84.611139,-38.01072 -110.542969,-77.07422 -17.39709,-26.2063 -27.644067,-54.11281 -30.962887,-84.32031 -1.64458,-14.9695 -1.39277,-44.69734 0.49218,-57.96094 6.88909,-48.4743 33.362106,-93.15002 71.669926,-120.95312 27.590821,-20.0247 88.57923,-50.44339 167.650394,-83.61719 l 22.64062,-9.5 1.24414,-21.41602 c 1.49381,-25.7251 2.7247,-34.91646 6.91406,-51.63086 13.47209,-53.7567 51.02576,-105.77768 100.15625,-138.73828 5.06133,-3.3953 15.14637,-9.43808 22.41016,-13.42578 l 13.20703,-7.25 v -9.48633 c 0,-16.9131 -4.6522,-37.86022 -11.14844,-50.19922 -3.75394,-7.1293 -18.7558,-22.88177 -28.97265,-30.42187 -7.8021,-5.7577 -11.81842,-11.72203 -12.38281,-18.39063 -0.35685,-4.2087 0.14565,-6.08103 2.88671,-10.76953 3.72082,-6.3654 10.33753,-11.72683 15.71875,-12.73633 8.75905,-1.6433 25.44193,8.09614 41.46485,24.20704 5.67578,5.7072 12.59671,13.83133 15.38086,18.05273 9.83912,14.9195 18.21186,40.59617 20.46679,62.76367 l 1.24219,12.2207 3.81641,-0.71289 c 2.09868,-0.3917 22.32223,-0.95831 44.93945,-1.25781 l 41.12305,-0.54492 0.74414,-7.18945 c 1.89055,-18.2639 7.02159,-37.99672 13.86719,-53.32032 7.80562,-17.4741 24.70004,-37.4509 40.75195,-48.1875 8.37076,-5.59921 15.4429,-8.41686 21.5332,-8.43359 z M 387.33789,294.67578 c -23.64828,-0.0181 -44.8498,3.9006 -67.63672,12.23633 -32.2744,11.8048 -49.85095,23.93458 -76.83203,53.01758 -19.49041,21.0083 -32.27489,45.96563 -40.25781,78.58203 -5.44059,22.2306 -7.51005,46.07965 -3.87695,44.68555 0.68689,-0.2635 15.30923,-5.67951 32.49414,-12.03711 35.87295,-13.2705 74.84275,-27.04797 123.42578,-43.63477 l 33.96093,-11.59375 30.72657,10.6582 c 35.63034,12.3605 120.44825,42.56972 143.75586,51.19922 8.79794,3.2571 16.26103,5.65693 16.58593,5.33203 0.97755,-0.9773 -1.77323,-26.32562 -4.10742,-37.85742 -16.14274,-79.7439 -83.51662,-141.20869 -163.625,-149.27539 -8.57552,-0.8635 -16.73052,-1.30646 -24.61328,-1.3125 z m -36.60547,182.62891 c -4.34617,-0.12721 -55.45951,17.72511 -123.29883,43.0957 -123.80285,46.2999 -204.810268,83.44366 -240.664059,110.35156 -27.84561,20.8991 -47.495404,51.99991 -54.833984,86.78711 -3.13637,14.8678 -3.440666,42.1329 -0.628906,56.3086 4.05396,20.4382 11.951508,39.5673 23.548828,57.0332 8.72439,13.1389 29.398735,33.89909 42.128906,42.30469 17.82583,11.7688 38.867047,20.70209 56.148437,23.83789 9.577031,1.7376 40.807115,1.99729 52.052738,0.43359 26.4649,-3.6809 56.83224,-19.67592 78.51757,-41.35742 18.47459,-18.472 24.68875,-28.41281 51.27149,-82.00391 27.9113,-56.273 58.7412,-132.42378 96.46484,-238.26758 16.65691,-46.7377 20.32601,-57.69547 19.56641,-58.45507 -0.0419,-0.0419 -0.13324,-0.0643 -0.27344,-0.0684 z m 75.08008,0.79101 c -0.71935,-0.0136 -1.08008,0.11929 -1.08008,0.39844 0,0.2955 5.53193,16.2281 12.29297,35.4043 60.888,172.7102 107.4466,280.20942 141.07227,325.73242 24.68466,33.4173 62.5856,55.08206 103.23242,59.00976 11.5765,1.1188 31.43564,0.28566 42.38476,-1.77734 30.91286,-5.8254 65.50741,-26.81972 87.34571,-53.01172 30.2489,-36.2681 41.21798,-75.83944 33.99218,-122.58594 -4.2812,-27.68679 -25.65687,-65.57373 -47.70507,-84.55273 C 761.91651,606.21079 652.34397,556.85348 493.19531,499.70898 453.47353,485.44648 430.84793,478.1906 425.8125,478.0957 Z m -37.98828,35.0918 -1.62891,3.77148 c -3.30987,7.6635 -17.58546,47.66881 -17.82031,49.94141 -0.23122,2.2246 0.27599,2.37777 9.45898,2.88867 11.71008,0.65 28.78596,0.0748 29.95704,-1.01562 0.85626,-0.7953 -12.34617,-38.71195 -17.28907,-49.65625 z m -37.18555,100.77734 -3.54101,9.44727 c -1.9478,5.1962 -9.96905,25.57902 -17.82422,45.29492 l -14.28125,35.84961 h 73.06445 73.0625 l -17.14453,-43.39648 c -9.42991,-23.8666 -17.54778,-44.12272 -18.04102,-45.01172 -0.76451,-1.3807 -6.34762,-1.65889 -38.0957,-1.90039 z m 129.1836,135.87305 -91.96289,0.0469 -91.9629,0.0488 -3.92187,8.30664 c -2.15698,4.5685 -11.95591,24.68036 -21.77539,44.69336 l -17.85156,36.38672 h 135.32031 c 134.88208,0 135.31791,-0.009 134.63476,-2.1582 -0.37969,-1.19429 -10.09058,-21.32598 -21.58203,-44.74219 z m -259.9336,133.6875 v 2.75781 c 0,6.1793 19.33762,46.68603 34.8418,72.98242 l 8.74023,14.82422 124.56446,-0.01 124.5664,-0.01 6.07617,-9.96875 v 0.01 c 17.6937,-29.0209 39.82295,-75.47391 37.20118,-78.09571 -1.32887,-1.3288 -88.09667,-2.28292 -217.66602,-2.39062 z M 390.58203,1018.416 c -43.17547,0.024 -86.79985,0.2987 -88.5957,0.8028 -2.35453,0.6613 -1.85654,1.3622 7.01367,9.8652 24.66771,23.6455 41.77988,35.649 59.10156,41.457 11.91153,3.9914 26.03634,4.3404 37.5293,0.9297 11.76163,-3.4936 29.23924,-13.86 43.74805,-25.9453 8.44936,-7.038 27.10546,-25.2104 27.10547,-26.4024 0,-0.5034 -42.72688,-0.7308 -85.90235,-0.707 z"
       inkscape:transform-center-y="-4.3046495e-06"
       inkscape:transform-center-x="2.7437848e-06"
       style="fill:#ff8c42;fill-opacity:1;stroke:none;stroke-width:3.77953;stroke-miterlimit:4;stroke-dasharray:none;stroke-opacity:0.92549;paint-order:markers fill stroke;stop-color:#000000"
       id="path1415" />
  </g>
</svg>
