<?xml version="1.0" encoding="UTF-8" standalone="no"?>
<svg
   xmlns:dc="http://purl.org/dc/elements/1.1/"
   xmlns:cc="http://creativecommons.org/ns#"
   xmlns:rdf="http://www.w3.org/1999/02/22-rdf-syntax-ns#"
   xmlns:svg="http://www.w3.org/2000/svg"
   xmlns="http://www.w3.org/2000/svg"
   xmlns:sodipodi="http://sodipodi.sourceforge.net/DTD/sodipodi-0.dtd"
   xmlns:inkscape="http://www.inkscape.org/namespaces/inkscape"
   inkscape:export-ydpi="96.099998"
   inkscape:export-xdpi="96.099998"
   inkscape:export-filename="/home/ali/Code/HiveMind/src/assets/orange_beetle.png"
   inkscape:version="1.0 (4035a4fb49, 2020-05-01)"
   sodipodi:docname="black_beetle.svg"
   viewBox="0 0 1134.5704 1310.0899"
   height="1310.0898"
   width="1134.5703"
   id="svg2"
   version="1.1">
  <metadata
     id="metadata8">
    <rdf:RDF>
      <cc:Work
         rdf:about="">
        <dc:format>image/svg+xml</dc:format>
        <dc:type
           rdf:resource="http://purl.org/dc/dcmitype/StillImage" />
        <dc:title></dc:title>
      </cc:Work>
    </rdf:RDF>
  </metadata>
  <defs
     id="defs6" />
  <sodipodi:namedview
     inkscape:current-layer="g10"
     inkscape:window-maximized="0"
     inkscape:window-y="13"
     inkscape:window-x="963"
     inkscape:cy="655.04514"
     inkscape:cx="567.28512"
     inkscape:zoom="0.17086161"
     showgrid="false"
     id="namedview4"
     inkscape:window-height="1032"
     inkscape:window-width="942"
     inkscape:pageshadow="2"
     inkscape:pageopacity="0"
     guidetolerance="10"
     gridtolerance="10"
     objecttolerance="10"
     borderopacity="1"
     bordercolor="#666666"
     pagecolor="#ffffff"
     inkscape:document-rotation="0" />
  <g
     transform="translate(34.40545,192.08915)"
     id="g10"
     inkscape:label="Image"
     inkscape:groupmode="layer">
    <path
       transform="translate(-34.40545,-192.08915)"
       d="M 567.28516 0 L 0 327.52344 L 0 982.56641 L 567.28516 1310.0898 L 1134.5703 982.56641 L 1134.5703 327.52344 L 567.28516 0 z M 492.39453 262.53516 C 493.94931 262.56515 495.03773 263.07942 495.93164 264.00586 C 499.31066 267.50791 497.0064 270.80139 487.38672 276.22656 C 477.93274 281.5587 474.77879 287.74761 476.26758 298.03906 C 477.78862 308.5489 476.39012 311.21921 464.21875 321.04688 C 443.27033 337.96107 435.9951 353.07771 427.25586 397.86133 C 418.64819 441.96918 419.54479 450.78143 436.37695 487.44727 C 446.16069 508.76198 453.21094 529.22694 453.21094 536.3125 C 453.21094 538.87017 453.73163 539.83746 454.61133 538.91992 C 455.81254 537.6675 479.83102 493.63235 500.375 455.01758 L 506.6582 443.20703 L 501.04688 441.48047 C 497.96042 440.53098 485.76787 439.14428 473.95312 438.39844 C 462.13815 437.6526 449.90783 436.26717 446.77539 435.31836 C 438.4996 432.81273 430.84444 425.01713 430.67773 418.92969 C 430.51527 412.96895 434.51563 406.17773 438.19141 406.17773 C 439.67065 406.17773 447.07148 410.80054 454.63867 416.44922 L 468.39844 426.7207 L 490.66797 428.37695 C 512.86946 430.02952 512.9527 430.02367 518.35547 426.39258 C 524.31056 422.39084 532.50607 410.84401 534.01953 404.32227 C 536.17842 395.0178 541.75095 394.95455 546.36133 404.18359 C 547.96454 407.39208 553.32852 414.14116 558.28125 419.18164 L 567.28516 428.34766 L 576.28906 419.18164 C 581.24179 414.14116 586.60577 407.39208 588.20898 404.18359 C 592.81936 394.95455 598.39384 395.0178 600.55273 404.32227 C 602.06619 410.84401 610.25975 422.39084 616.21484 426.39258 C 621.61761 430.02367 621.70281 430.02952 643.9043 428.37695 L 666.17383 426.7207 L 679.93164 416.44922 C 687.49883 410.80054 694.89967 406.17773 696.37891 406.17773 C 700.05466 406.17773 704.05699 412.96895 703.89453 418.92969 C 703.72782 425.01713 696.07071 432.81273 687.79492 435.31836 C 684.66248 436.26717 672.43192 437.6526 660.61719 438.39844 C 648.80245 439.14428 636.61184 440.53098 633.52539 441.48047 L 627.91211 443.20703 L 634.19727 455.01758 C 654.74125 493.63235 678.75777 537.6675 679.95898 538.91992 C 680.83868 539.83746 681.35937 538.87224 681.35938 536.3125 C 681.35938 529.22694 688.40962 508.76198 698.19336 487.44727 C 715.06548 450.69424 715.97067 441.77769 707.30859 397.75391 C 698.48902 352.92921 691.27648 337.9416 670.42188 321.10352 C 664.24346 316.11506 658.77593 310.68489 658.27148 309.03711 C 657.76681 307.38932 657.7685 302.48882 658.27539 298.14648 C 659.54825 287.24823 656.23447 280.85772 646.65039 275.73047 C 637.58966 270.88269 635.27322 267.49375 638.63867 264.00586 C 641.49796 261.04196 646.34574 262.30362 662.09961 270.10938 C 680.14328 279.04983 681.56784 281.37294 711.18164 350.13477 C 725.72947 383.91503 738.29688 411.38205 739.10938 411.17383 C 739.92188 410.96561 745.98461 406.64826 752.58203 401.57812 C 759.17951 396.50804 765.43833 392.35938 766.49023 392.35938 C 773.09516 392.35938 772.76053 403.28553 765.63281 420.29297 C 763.26462 425.94458 760.03892 436.9992 758.46484 444.85938 C 746.86709 502.77378 726.91571 541.21241 693.23828 570.5293 C 687.86786 575.20446 680.9638 580.63742 677.89453 582.60352 C 674.82526 584.56963 672.57686 586.45185 672.89844 586.78516 C 673.22004 587.11848 683.92184 590.4674 696.68164 594.22852 C 725.43001 602.70301 736.73812 607.57681 752.62109 618.33398 C 784.80576 640.13039 801.24046 665.39884 801.38477 693.31055 C 801.45557 706.70129 803.43922 712.50263 813.20898 727.85938 C 818.24695 735.77725 824.13314 746.61664 826.29102 751.94727 C 829.87461 760.8004 830.21563 763.43397 830.23047 782.36914 C 830.24147 798.71219 829.63899 805.04744 827.37695 812.31055 L 824.50781 821.52344 L 823.35547 809.41406 C 820.38609 778.20694 811.34544 763.05287 763.08008 708.36328 C 746.01379 689.02534 736.25662 674.76107 731.01953 661.49609 C 728.87379 656.06153 727.20807 653.51374 726.72266 654.92383 C 726.28693 656.19078 725.27952 666.90163 724.48438 678.72461 C 721.251 726.76877 729.09342 748.28197 757.20508 768.48438 C 764.35675 773.62362 765.58241 775.44011 771.80859 790.13086 C 775.54686 798.95084 785.83292 821.89675 794.66797 841.12109 C 808.80044 871.87265 811.51684 876.73991 817.26367 881.62109 C 827.87721 890.6347 828.38398 897.44972 819.1875 907.50977 C 816.4323 910.52375 811.52589 921.40541 804.99609 938.98633 C 780.1791 1005.7974 766.5049 1031.8027 750.23438 1043.1348 C 744.56457 1047.0839 741.91134 1048.0416 738.56445 1047.3477 C 725.54015 1044.6477 728.1351 1032.4669 744.18945 1020.9375 C 752.08809 1015.2653 753.33138 1013.3716 771.22656 979.75781 C 782.69878 958.20931 789.30292 944.29092 788.23047 943.91992 C 783.61312 942.32492 771.96841 932.66586 767.69336 926.88477 C 759.84834 916.27737 758.39453 908.33945 758.39453 876.07617 C 758.39453 844.89132 756.80009 834.58348 750.32617 823.95508 C 745.62728 816.24046 743.84134 815.173 742.94531 819.54102 C 726.98132 897.3395 706.60257 940.49594 672.53125 968.65234 C 646.06744 990.52134 613.30954 1000.4043 567.28516 1000.4043 C 554.96783 1000.4043 540.09617 999.65779 534.23633 998.74609 C 488.04964 991.55809 456.25115 971.57754 431.79883 934.37891 C 418.35815 913.93183 404.05216 876.41214 396.96289 843.01953 C 390.5026 812.59119 390.84879 813.11032 384.24414 823.95508 C 377.77022 834.58348 376.17383 844.89132 376.17383 876.07617 C 376.17383 908.33945 374.72197 916.27737 366.87695 926.88477 C 362.62002 932.64192 350.96309 942.3221 346.38281 943.9043 C 345.36634 944.2552 352.26767 958.81184 363.375 979.74414 C 381.25512 1013.4404 382.44283 1015.2536 390.36914 1020.9375 C 406.43378 1032.457 409.03592 1044.6468 396.00586 1047.3477 C 392.65897 1048.0416 390.00591 1047.0839 384.33594 1043.1348 C 368.06541 1031.8027 354.3912 1005.7974 329.57422 938.98633 C 323.04441 921.40541 318.13802 910.52375 315.38281 907.50977 C 306.18634 897.44972 306.69312 890.6347 317.30664 881.62109 C 323.05348 876.73991 325.76987 871.87265 339.90234 841.12109 C 348.73739 821.89675 359.02343 798.95084 362.76172 790.13086 C 368.98788 775.44011 370.21356 773.62362 377.36523 768.48438 C 405.48936 748.27311 413.57772 725.97362 410.12695 678.1582 C 409.29591 666.64714 408.26499 656.19078 407.83594 654.92383 C 407.36122 653.52307 405.68165 656.0991 403.55078 661.49609 C 398.20293 675.04236 387.72109 690.28566 370.41016 709.69336 C 324.41308 761.25918 314.14591 778.48889 311.25391 808.96094 L 310.0625 821.52344 L 307.19336 812.31055 C 304.93153 805.04772 304.32735 798.71157 304.33984 782.36914 C 304.35194 763.43397 304.6957 760.8004 308.2793 751.94727 C 310.43718 746.61664 316.32336 735.77725 321.36133 727.85938 C 331.13109 712.50264 333.11684 706.70129 333.18555 693.31055 C 333.32986 665.39884 349.76455 640.13039 381.94922 618.33398 C 397.83219 607.57681 409.13835 602.70301 437.88672 594.22852 C 450.64652 590.4674 461.32921 587.13999 461.625 586.83398 C 461.92008 586.52794 459.31316 584.35043 455.83398 581.99414 C 452.3541 579.63714 445.50833 574.19268 440.61914 569.89453 C 407.3922 540.68227 387.62073 502.36173 376.10547 444.85938 C 374.53139 436.99921 371.30569 425.94458 368.9375 420.29297 C 361.80978 403.28553 361.47515 392.35938 368.08008 392.35938 C 369.13198 392.35938 375.3908 396.50804 381.98828 401.57812 C 388.58566 406.64826 394.64843 410.96561 395.46094 411.17383 C 396.27344 411.38205 408.83907 383.95732 423.38477 350.23047 C 453.01407 281.52935 454.57147 278.98606 472.4707 270.11133 C 483.2963 264.74397 488.97402 262.46917 492.39453 262.53516 z "
       inkscape:transform-center-y="-2.0158062e-06"
       inkscape:transform-center-x="1.4942359e-06"
       style="fill:#333333;fill-opacity:1;stroke:none;stroke-width:3.77953;stroke-miterlimit:4;stroke-dasharray:none;stroke-opacity:0.92549;paint-order:markers fill stroke;stop-color:#000000"
       id="path1415" />
  </g>
</svg>
