<?xml version="1.0" encoding="UTF-8" standalone="no"?>
<svg
   xmlns:dc="http://purl.org/dc/elements/1.1/"
   xmlns:cc="http://creativecommons.org/ns#"
   xmlns:rdf="http://www.w3.org/1999/02/22-rdf-syntax-ns#"
   xmlns:svg="http://www.w3.org/2000/svg"
   xmlns="http://www.w3.org/2000/svg"
   xmlns:sodipodi="http://sodipodi.sourceforge.net/DTD/sodipodi-0.dtd"
   xmlns:inkscape="http://www.inkscape.org/namespaces/inkscape"
   inkscape:export-ydpi="96.099998"
   inkscape:export-xdpi="96.099998"
   inkscape:export-filename="/home/ali/Code/HiveMind/src/assets/black_beetle.png"
   inkscape:version="1.0 (4035a4fb49, 2020-05-01)"
   sodipodi:docname="grass_hopper.svg"
   viewBox="0 0 1134.5704 1310.0899"
   height="1310.0898"
   width="1134.5703"
   id="svg2"
   version="1.1">
  <metadata
     id="metadata8">
    <rdf:RDF>
      <cc:Work
         rdf:about="">
        <dc:format>image/svg+xml</dc:format>
        <dc:type
           rdf:resource="http://purl.org/dc/dcmitype/StillImage" />
        <dc:title></dc:title>
      </cc:Work>
    </rdf:RDF>
  </metadata>
  <defs
     id="defs6" />
  <sodipodi:namedview
     inkscape:current-layer="g10"
     inkscape:window-maximized="0"
     inkscape:window-y="13"
     inkscape:window-x="963"
     inkscape:cy="655.04514"
     inkscape:cx="567.28512"
     inkscape:zoom="0.17086161"
     showgrid="false"
     id="namedview4"
     inkscape:window-height="1032"
     inkscape:window-width="942"
     inkscape:pageshadow="2"
     inkscape:pageopacity="0"
     guidetolerance="10"
     gridtolerance="10"
     objecttolerance="10"
     borderopacity="1"
     bordercolor="#666666"
     pagecolor="#ffffff"
     inkscape:document-rotation="0" />
  <g
     transform="translate(34.40545,192.08915)"
     id="g10"
     inkscape:label="Image"
     inkscape:groupmode="layer">
    <path
       id="path3816"
       d="m 550.31925,837.02056 c -1.14342,-3.1579 -0.9974,-16.8752 0.32429,-30.48292 3.97172,-40.88568 -14.01692,-62.45372 -65.61443,-78.67057 -38.45568,-12.08644 -56.44148,-24.85779 -102.20083,-72.57067 -33.19509,-34.61223 -45.72635,-45.27708 -42.48834,-36.1601 25.53587,71.89853 -65.39376,209.15766 -138.94897,209.74506 -17.5882,0.1405 -15.72122,-4.3248 9.5603,-22.86576 53.20439,-39.01898 106.42136,-117.33669 106.42136,-156.6169 0,-15.70355 -13.65214,-63.91398 -18.06384,-63.78964 -1.43339,0.0413 -11.75535,19.82896 -22.9377,43.9746 -39.60757,85.52322 -105.28357,172.25403 -140.60738,185.6841 -15.43064,5.8667 -29.68439,5.7879 -29.68439,-0.1642 0,-2.5806 18.31441,-22.73388 40.69871,-44.785 36.94197,-36.3921 67.76432,-80.94473 108.99797,-157.5527 0.77751,-1.44451 -8.89609,2.4758 -21.49687,8.71185 -20.44809,10.11966 -24.82784,10.76388 -40.74947,5.99361 -17.96195,-5.3815 -59.89036,-45.86402 -59.89036,-57.82501 0,-3.14 -5.06575,-15.2365 -11.25723,-26.88106 -17.5716,-33.04766 -22.11247,-55.03398 -16.06908,-77.80463 5.84107,-22.00838 20.42189,-40.19167 32.22889,-40.19167 9.59934,0 14.11516,-9.95585 8.52279,-18.78987 -5.84343,-9.23058 -5.19463,-50.528 1.08316,-68.94636 8.22259,-24.12417 30.27092,-53.76314 49.4221,-66.43679 18.39568,-12.17369 78.4055,-24.37027 167.1515,-33.97238 48.62134,-5.26072 66.70377,-11.20084 100.90444,-33.14735 23.49607,-15.07738 28.99341,-14.93032 24.05051,0.64341 -8.60505,27.11209 -70.85452,46.89021 -180.12183,57.22894 -79.22282,7.49595 -93.34265,12.44655 -120.96319,42.4113 -21.25106,23.05468 -31.98539,45.11761 -31.98539,65.74157 0,19.66688 5.50172,17.26896 15.35563,-6.69271 12.18195,-29.62277 46.25836,-63.7915 78.8077,-79.0212 26.78358,-12.53194 29.30694,-12.8418 89.57,-10.99891 128.71878,3.9363 142.89035,3.27139 167.29147,-7.84901 12.43082,-5.66513 29.69105,-18.58278 38.35605,-28.70588 15.88797,-18.56156 36.27006,-31.94475 48.65061,-31.94475 7.54946,0 10.12701,13.18034 14.6113,74.7162 l 2.93431,40.26619 31.27987,-47.15619 c 34.82871,-52.50633 56.77672,-77.01286 68.97252,-77.01286 4.47303,0 12.94447,3.89627 18.82546,8.65838 12.56538,10.17485 13.27794,30.91288 2.4092,70.1179 -10.84899,39.13381 -12.93937,87.45692 -7.62016,176.15371 2.72711,45.47399 6.02048,87.84749 7.31861,94.16332 1.88239,9.15861 12.7848,16.94536 53.8538,38.46375 61.28333,32.10979 125.17535,73.43688 129.01882,83.45282 3.87636,10.10162 -6.95825,24.78012 -32.56002,44.11157 -33.22739,25.08943 -57.36559,35.62907 -94.9978,41.47964 -34.02989,5.29051 -34.12452,5.34494 -29.85295,17.1781 11.52431,31.92486 11.10462,31.67687 54.02385,31.92022 43.43759,0.2462 86.3842,10.92135 64.90504,16.13325 -39.59132,9.6066 -57.36881,11.8348 -95.22416,11.935 l -42.40083,0.1123 -2.85632,-12.6317 c -6.83075,-30.20746 -15.16765,-61.82383 -16.52075,-62.65206 -0.80737,-0.49415 -15.93694,-5.1697 -33.62127,-10.39012 -17.68433,-5.22041 -35.77058,-11.03755 -40.19167,-12.92697 -7.28217,-3.11216 -8.03833,0.11576 -8.03833,34.31395 v 37.7493 l 16.65681,-3.12485 c 16.92951,-3.17597 43.05652,4.0815 43.05652,11.96005 0,7.0608 -22.39052,13.1091 -48.52902,13.1091 -36.91001,0 -42.23731,-7.1603 -42.65365,-57.32909 -0.18235,-21.98429 -1.59393,-43.94842 -3.13669,-48.80917 -1.54272,-4.86081 -13.50725,-15.84769 -26.58782,-24.41536 -13.08053,-8.56762 -31.34119,-21.13044 -40.57916,-27.91727 l -16.7964,-12.33971 -9.3591,9.3591 c -15.03218,15.03218 -38.87511,17.2306 -58.87772,5.42877 -11.06118,-6.52626 -14.91854,-7.52177 -11.04088,-2.84948 9.03614,10.8879 33.6399,24.99981 65.04288,37.30655 39.06606,15.3099 58.54074,31.49993 71.2295,59.21578 10.62608,23.21043 15.70038,64.88618 9.18405,75.42978 -4.40547,7.1282 -33.58361,6.7668 -36.19602,-0.4483 z m 271.28,-118.71061 c 28.36466,-9.7589 58.90179,-28.86529 65.32919,-40.87502 3.32093,-6.20517 -8.20098,-14.89374 -65.72954,-49.56619 -85.92578,-51.78754 -85.83295,-51.74969 -85.83295,-34.98182 0,15.47627 13.41731,125.49519 16.39158,134.40731 2.61058,7.82231 31.96956,4.04563 69.84172,-8.98428 z m -106.45632,-3.01268 c -2.39446,-11.72512 -14.78121,-110.78219 -17.58434,-140.62232 -1.15637,-12.31013 -4.36693,-14.27121 -49.86137,-30.45646 -26.74394,-9.51458 -52.69145,-18.58972 -57.66116,-20.16703 -7.69682,-2.44287 -12.19925,3.43154 -30.38454,39.64318 -32.93553,65.58333 -33.13681,62.7774 6.51161,90.7621 36.89571,26.04176 85.19011,51.83278 120.97282,64.60394 30.5193,10.89263 30.98718,10.82975 28.00698,-3.76341 z M 518.3734,584.38728 c 57.22071,-85.02421 151.55004,-238.83964 167.9053,-273.79002 15.76827,-33.69606 18.82132,-61.50975 7.01668,-63.92306 -11.63574,-2.37879 -21.43837,10.86311 -68.02028,91.8852 -23.62926,41.09942 -64.65622,108.83172 -91.17105,150.51622 -54.42618,85.56452 -78.93142,128.53597 -78.93142,138.41113 0,8.1878 8.96552,17.76219 16.63265,17.76219 3.08475,0 24.04041,-27.38774 46.56812,-60.86166 z m -275.46167,11.90238 c 23.46489,-17.85571 37.62441,-43.03673 43.23329,-76.88523 6.42602,-38.77976 1.01223,-58.36216 -23.98644,-86.76215 -29.82076,-33.87817 -58.13871,-38.49449 -87.02668,-14.18687 -52.78493,44.4156 -44.6996,154.9307 13.6274,186.26743 18.88122,10.1441 32.53324,8.01807 54.15243,-8.43318 z m -78.11361,-50.94571 c -20.19456,-23.1515 -25.12012,-64.72118 -10.92201,-92.1773 8.46828,-16.37584 31.79576,-32.95669 46.36653,-32.95669 14.32075,0 37.84439,16.47672 45.97727,32.20397 4.05897,7.84918 7.6132,24.51139 7.89828,37.02713 0.43844,19.24832 -1.54973,24.93121 -12.8986,36.86862 -25.60882,26.93687 -61.68939,35.92345 -76.42147,19.03427 z m 48.89642,-72.6731 c 3.96995,-3.96995 7.21809,-8.9898 7.21809,-11.15523 0,-6.14856 -13.75287,-18.37333 -20.66999,-18.37333 -3.4286,0 -9.47786,3.24404 -13.4428,7.20898 -10.13144,10.13144 -0.44528,27.19663 16.5597,29.17505 1.7143,0.19944 6.36505,-2.88551 10.335,-6.85547 z m 243.76448,89.31925 c 34.0268,-49.5496 34.91993,-51.54237 29.33592,-65.45499 -7.98987,-19.90689 -54.15857,-63.89413 -80.73578,-76.92103 -16.12361,-7.90303 -29.98947,-10.83731 -51.37982,-10.87297 -26.81657,-0.0446 -30.12171,1.05008 -39.04333,12.93235 -8.6466,11.51598 -9.74671,19.08589 -9.74671,67.0671 0,38.52394 1.92064,57.67157 6.67524,66.54791 12.80232,23.90063 69.14518,56.33397 99.79198,57.4445 7.73941,0.28065 17.9605,-11.21885 45.1025,-50.74287 z m 236.56693,-31.93235 c 0,-9.45239 -9.36627,-116.88283 -11.93164,-136.85513 l -2.57962,-20.08301 -24.8977,37.18823 c -24.15363,36.07682 -24.89771,38.13821 -24.89771,68.97514 v 31.78691 l 28.70834,11.74569 c 32.90507,13.46274 35.59833,14.01067 35.59833,7.24217 z M 553.16312,419.31632 582.79265,370.4535 580.35381,340.07084 c -1.34134,-16.71046 -4.0238,-31.36224 -5.96104,-32.55952 -4.1481,-2.56365 -41.72708,85.18683 -52.37571,122.30228 -4.05775,14.14307 -6.03339,29.21796 -4.39031,33.49977 1.64308,4.28181 3.64431,7.12827 4.44713,6.32545 0.80282,-0.80282 14.79297,-23.44794 31.08924,-50.3225 z m -260.64258,-5.44605 c 4.51684,-11.77067 48.21251,-31.89039 68.59,-31.58233 18.71528,0.2829 60.25852,17.64173 76.57652,31.99742 7.058,6.20924 8.39535,5.41691 14.45147,-8.56197 17.06294,-39.38518 42.15018,-90.53323 52.26423,-106.55674 6.13051,-9.71244 10.48039,-18.31529 9.66646,-19.11745 -0.81399,-0.80216 -13.88193,1.74802 -29.03993,5.66706 -23.86139,6.16928 -37.42296,6.39822 -101.05333,1.70596 -100.59655,-7.41825 -129.18753,0.0713 -167.69442,43.92819 -12.6882,14.45105 -27.52224,41.23243 -27.52224,49.68863 0,1.37416 8.14411,1.19619 18.09801,-0.39553 21.30004,-3.40601 55.38749,10.78691 68.17606,28.38633 9.04787,12.45152 14.03662,13.8324 17.48717,4.84041 z"
       style="fill:#000000;stroke-width:4.59333" />
  </g>
</svg>
