<?xml version="1.0" encoding="UTF-8" standalone="no"?>
<svg
   xmlns:dc="http://purl.org/dc/elements/1.1/"
   xmlns:cc="http://creativecommons.org/ns#"
   xmlns:rdf="http://www.w3.org/1999/02/22-rdf-syntax-ns#"
   xmlns:svg="http://www.w3.org/2000/svg"
   xmlns="http://www.w3.org/2000/svg"
   xmlns:sodipodi="http://sodipodi.sourceforge.net/DTD/sodipodi-0.dtd"
   xmlns:inkscape="http://www.inkscape.org/namespaces/inkscape"
   inkscape:export-ydpi="96.099998"
   inkscape:export-xdpi="96.099998"
   inkscape:export-filename="/home/ali/Code/HiveMind/src/assets/orange_ant.png"
   inkscape:version="1.0 (4035a4fb49, 2020-05-01)"
   sodipodi:docname="orange_ant.svg"
   viewBox="0 0 1134.5704 1310.0879"
   height="1310.0879"
   width="1134.5703"
   id="svg2"
   version="1.1">
  <metadata
     id="metadata8">
    <rdf:RDF>
      <cc:Work
         rdf:about="">
        <dc:format>image/svg+xml</dc:format>
        <dc:type
           rdf:resource="http://purl.org/dc/dcmitype/StillImage" />
        <dc:title></dc:title>
      </cc:Work>
    </rdf:RDF>
  </metadata>
  <defs
     id="defs6" />
  <sodipodi:namedview
     inkscape:current-layer="g10"
     inkscape:window-maximized="0"
     inkscape:window-y="13"
     inkscape:window-x="963"
     inkscape:cy="601.78263"
     inkscape:cx="338.35855"
     inkscape:zoom="0.24163481"
     showgrid="false"
     id="namedview4"
     inkscape:window-height="1032"
     inkscape:window-width="942"
     inkscape:pageshadow="2"
     inkscape:pageopacity="0"
     guidetolerance="10"
     gridtolerance="10"
     objecttolerance="10"
     borderopacity="1"
     bordercolor="#666666"
     pagecolor="#ffffff"
     inkscape:document-rotation="0" />
  <g
     transform="translate(26.360468,138.82665)"
     id="g10"
     inkscape:label="Image"
     inkscape:groupmode="layer">
    <path
       transform="translate(-16.235468,-95.553208)"
       d="M 557.16016,-43.273438 -10.125,284.24805 V 939.29297 L 557.16016,1266.8145 1124.4453,939.29297 V 284.24805 Z M 884.75195,284.16406 c 1.75223,-0.0401 3.04112,0.75133 4.41602,2.21485 4.3566,4.63741 2.65193,7.96429 -7.60547,14.84179 -50.2962,33.72306 -109.54002,93.15957 -148.06445,148.54883 l -2.22852,3.20703 3.28711,1.69727 c 1.80752,0.93375 4.89736,2.7639 6.86719,4.0664 3.03991,2.01004 5.21584,2.44541 14.39258,2.88086 27.72042,1.31536 57.05569,-5.82545 102.02539,-24.83203 45.0676,-19.04799 85.94535,-28.84153 136.65625,-32.74414 12.73905,-0.98038 15.04545,-0.92787 17.63285,0.41016 3.7349,1.93136 4.8982,5.9126 2.705,9.25976 -2.2128,3.37718 -4.3781,3.97018 -17.05074,4.66993 -43.4324,2.39826 -93.46726,13.88798 -130.44336,29.95312 -40.4991,17.5958 -70.28259,26.22571 -94.75,27.45703 -6.1875,0.31139 -11.25,0.70345 -11.25,0.86914 0,0.1657 1.31891,2.25393 2.92968,4.64063 1.61077,2.38671 4.81937,8.35677 7.13086,13.26758 5.71626,12.14432 8.0852,14.8247 17.8086,20.14648 9.4309,5.16172 9.34736,5.8197 -0.86914,6.8457 -3.6598,0.36754 -7.17129,0.98941 -7.80469,1.38086 -0.6812,0.42099 1.59607,2.10397 5.57617,4.1211 l 6.72852,3.41015 -7.5,0.68555 c -9.25912,0.84634 -15.18899,3.36518 -25.5,10.83398 -16.20389,11.73732 -19.42525,12.49994 -53,12.53907 -24.92393,0.029 -25.02586,0.0206 -33.5,-2.8418 -14.05267,-4.74675 -25.79605,-11.29506 -35.37696,-19.72852 l -4.62304,-4.07031 -0.0254,6.33594 c -0.0163,3.99483 -0.90704,8.9198 -2.41211,13.33398 -1.31271,3.85 -2.20986,7.18045 -1.99219,7.40039 0.21767,0.21993 5.91733,-0.17968 12.66406,-0.88672 19.48942,-2.04241 32.15709,-1.7524 38.97461,0.88868 3.30679,1.28104 6.82566,3.53787 8.36328,5.36523 2.35173,2.79487 2.58572,3.73188 2.0586,8.2168 -0.74702,6.35597 -0.21978,8.25312 9.59961,34.51562 20.35406,54.43802 41.96224,98.83531 54.27343,111.51758 6.03733,6.2193 14.19554,9.74356 22.4961,9.7168 3.02499,-0.01 11.11341,-1.41549 17.97461,-3.125 14.7862,-3.68408 20.18949,-3.9453 23.02539,-1.10938 2.511,2.51104 2.58493,7.41512 0.14843,9.85157 -1.0807,1.08069 -4.0989,2.14005 -7.25,2.54492 -2.9692,0.38149 -9.89843,1.90976 -15.39843,3.39648 -14.6663,3.96449 -25.28777,3.76235 -35.74219,-0.68164 -4.59022,-1.95123 -9.80518,-5.14556 -12.81055,-7.84766 -13.85507,-12.4569 -35.43915,-54.63245 -56.9414,-111.26367 -9.36903,-24.67553 -14.00586,-38.96773 -14.00586,-43.16797 0,-2.84962 -0.53246,-4.04561 -2.19532,-4.93554 -3.03231,-1.62284 -26.2701,-0.58598 -44.94531,2.00586 l -14.63867,2.03125 -7.36133,5.55664 c -4.04799,3.05601 -11.06849,7.45849 -15.60351,9.7832 -4.53501,2.32472 -8.24751,4.72002 -8.25,5.32227 -0.002,0.60226 0.83013,1.85101 1.85156,2.77539 1.74376,1.57809 2.15205,1.5535 6.6875,-0.39063 2.65669,-1.13879 6.68092,-2.32271 8.94336,-2.63281 3.78744,-0.51912 4.36711,-0.2765 7.3125,3.07812 1.75945,2.00389 3.19922,4.03198 3.19922,4.50586 0,1.49469 -6.98739,7.06836 -8.86133,7.06836 -0.98604,0 -4.56142,1.125 -7.94531,2.5 -3.3839,1.375 -7.1754,2.49816 -8.42383,2.4961 -3.63085,-0.006 -8.28585,-3.44163 -12.84375,-9.47852 -3.92828,-5.20298 -4.45873,-5.56041 -7.33008,-4.94531 -1.70252,0.36471 -3.41867,0.85349 -3.81445,1.08594 -0.82552,0.48483 -1.00045,0.0889 19.21484,43.34179 20.73515,44.36519 31.12832,68.40961 36.02734,83.33594 4.53293,13.81091 6.33265,16.78502 11.85352,19.60156 6.31073,3.21949 14.64759,4.0625 40.15234,4.0625 22.62153,0 24.79831,0.15065 26.31641,1.82813 2.09307,2.31282 2.13831,7.54524 0.084,9.59961 -2.15159,2.1516 -3.70452,2.37221 -21.42968,3.04687 -27.19877,1.03524 -47.16211,-1.77349 -56.1211,-7.89648 -5.35677,-3.66107 -9.32983,-10.4188 -13.47461,-22.92188 -6.06102,-18.28349 -17.82868,-45.20628 -46.40429,-106.15625 -6.18866,-13.2 -11.30911,-24.073 -11.37696,-24.16211 -0.0678,-0.0891 -6.87304,0.16898 -15.12304,0.57422 -15.85492,0.77878 -31.51048,-0.87181 -41.375,-4.36328 -2.40665,-0.85182 -4.76915,-1.54883 -5.25,-1.54883 -2.02379,0 -0.83531,16.77706 2.09375,29.55274 7.10098,30.97232 17.9906,99.37094 27.53515,172.94726 l 3.63282,28 5.07617,9 c 7.17122,12.71359 15.87931,25.32484 20.68359,29.95313 4.47689,4.31288 5.20162,7.53405 2.54688,11.32422 -2.75931,3.93947 -7.66552,3.02903 -13.60157,-2.52344 -5.71087,-5.34185 -17.45663,-22.46533 -24.18164,-35.25391 -4.29674,-8.17089 -4.55329,-9.15822 -6.63476,-25.5 -7.33179,-57.56251 -22.2865,-155.20479 -25.88281,-169 -0.76147,-2.92092 -0.8928,-2.7799 -5,5.35157 -14.45979,28.62761 -40.5717,55.81231 -73.64258,76.66796 -20.81554,13.12701 -50.38359,25.63651 -73.5,31.09571 -14.44197,3.41064 -37.47509,4.37124 -48.08008,2.00586 -13.58643,-3.03037 -23.1834,-8.77532 -28.78516,-17.23243 -1.66564,-2.51466 -3.17019,-4.993 -3.34179,-5.50781 -0.1716,-0.51481 -3.23285,1.90873 -6.80274,5.38672 -7.04281,6.86151 -12.20655,9.79686 -21.44922,12.18945 -11.71176,3.03176 -34.74563,1.38539 -38.60742,-2.75976 -2.54045,-2.72685 -2.45821,-7.17265 0.18359,-9.81445 1.94849,-1.94849 2.68726,-2.04833 9.25,-1.25 27.49028,3.34406 39.18877,-1.64081 48.81446,-20.80274 2.79592,-5.56586 4.05545,-9.80703 5.23242,-17.62695 4.78533,-31.79426 25.57116,-68.28431 56.43359,-99.06836 8.66448,-8.64246 11.52487,-12.33589 17.20313,-22.2207 l 6.81054,-11.85547 -8.86132,-6.50391 c -11.93728,-8.76172 -23.96761,-16.55469 -25.55664,-16.55469 -2.83418,0 -39.54262,42.24078 -92.55274,106.5 -23.69142,28.71889 -66.80376,82.10741 -71.17383,88.13867 -10.88204,15.01863 -30.58215,28.45582 -51.96484,35.44336 -13.077329,4.27347 -24.939538,5.90945 -42.867188,5.91407 -14.286659,0.004 -15.83932,-0.17211 -18.2499995,-2.06836 -1.88747,-1.48468 -2.6347656,-3.00152 -2.6347656,-5.34571 0,-6.1239 1.4787025,-6.57933 22.6015621,-6.97851 20.858251,-0.39417 30.248239,-2.15152 45.56836,-8.5293 13.13601,-5.46854 28.778311,-17.43448 36.701171,-28.07422 1.43344,-1.925 14.96295,-18.8 30.06641,-37.5 72.56949,-89.85022 115.95482,-140.64975 134.32422,-157.2832 4.55826,-4.1275 6.46665,-5.2168 9.14648,-5.2168 4.6792,0 14.74807,5.41817 29.5918,15.92383 9.26038,6.55403 12.78735,8.55214 13.60742,7.71094 1.11809,-1.14691 47.39631,-82.8033 51.03125,-90.04297 2.75268,-5.4825 7.41483,-7.86273 14.15234,-7.22656 2.91014,0.27478 6.73514,1.33784 8.5,2.36328 1.76485,1.02545 15.55124,16.12998 30.63477,33.56445 l 27.42383,31.69922 6.57617,-6.32617 c 3.61647,-3.47897 7.73477,-7.07843 9.15234,-7.99805 2.29911,-1.4915 2.71286,-2.72438 3.82813,-11.41992 1.94059,-15.13042 6.6793,-37.49897 10.15625,-47.93555 3.47522,-10.43139 10.96156,-22.70171 16.36132,-26.82031 4.31602,-3.29199 9.46779,-3.32716 12.70899,-0.0859 2.5127,2.51271 5.36598,10.06417 15.95312,42.22852 l 6.29883,19.13281 18.55664,0.51172 c 14.26466,0.39332 20.48348,0.99875 26.87696,2.61719 8.73211,2.21044 21.05732,7.45355 26.30664,11.1914 l 3.09961,2.20704 -0.86329,-3.39649 c -0.47405,-1.86881 -0.86132,-7.90833 -0.86132,-13.42187 0,-9.29695 0.23694,-10.50562 3.26172,-16.64649 6.03386,-12.24986 20.83084,-23.26143 36.73828,-27.33789 15.87508,-4.06817 36.82808,-3.64935 53.07422,1.05859 4.88541,1.41574 9.0745,2.76397 9.30859,2.99805 0.23408,0.23409 1.79111,-1.47995 3.45898,-3.81055 22.3524,-31.23409 42.24019,-55.13409 66.625,-80.06054 28.8187,-29.45878 57.03549,-53.71219 82.27539,-70.71875 8.04,-5.41734 12.24759,-7.79249 15.16797,-7.85938 z M 511.38477,443.06445 c -1.5386,0 -4.80668,6.24797 -7.55665,14.44532 -4.15113,12.37408 -9.89173,42.55468 -8.09374,42.55468 0.3673,0 3.25253,-1.08699 6.41015,-2.41601 3.15761,-1.32903 10.00544,-3.63482 15.21875,-5.12305 5.21331,-1.48823 9.60205,-2.81097 9.75195,-2.93945 0.62386,-0.53471 -14.92579,-46.52149 -15.73046,-46.52149 z m -118.44336,29.54102 c -0.73077,0.0194 -1.13344,0.78686 -1.9375,2.68945 -0.76018,1.79874 -12.49223,22.79853 -26.07227,46.66602 -13.58005,23.86749 -24.45776,44.00499 -24.17187,44.75 0.82978,2.16238 2.61275,1.67315 14.68554,-4.02344 13.75039,-6.48817 26.63695,-10.89636 40.25,-13.76758 14.02303,-2.9577 33.84655,-2.93552 45.08789,0.0508 4.36801,1.16036 8.22426,1.76856 8.56836,1.35157 1.158,-1.40326 3.16298,-11.1716 2.50977,-12.22852 -2.37944,-3.85001 -55.18375,-63.78028 -57.09375,-64.79883 -0.83156,-0.44345 -1.38772,-0.70109 -1.82617,-0.68945 z"
       inkscape:transform-center-y="-2.0158062e-06"
       inkscape:transform-center-x="1.4942359e-06"
       style="fill:#ff8c42;fill-opacity:1;stroke:none;stroke-width:3.77953;stroke-miterlimit:4;stroke-dasharray:none;stroke-opacity:0.92549;paint-order:markers fill stroke;stop-color:#000000"
       id="path1415" />
  </g>
</svg>
