<?xml version="1.0" encoding="UTF-8" standalone="no"?>
<svg
   xmlns:dc="http://purl.org/dc/elements/1.1/"
   xmlns:cc="http://creativecommons.org/ns#"
   xmlns:rdf="http://www.w3.org/1999/02/22-rdf-syntax-ns#"
   xmlns:svg="http://www.w3.org/2000/svg"
   xmlns="http://www.w3.org/2000/svg"
   xmlns:sodipodi="http://sodipodi.sourceforge.net/DTD/sodipodi-0.dtd"
   xmlns:inkscape="http://www.inkscape.org/namespaces/inkscape"
   inkscape:export-ydpi="96.099998"
   inkscape:export-xdpi="96.099998"
   inkscape:export-filename="/home/ali/Code/HiveMind/src/assets/black_spider.png"
   inkscape:version="1.0 (4035a4fb49, 2020-05-01)"
   sodipodi:docname="orange_spider.svg"
   viewBox="0 0 1134.5704 1310.0899"
   height="1310.0898"
   width="1134.5703"
   id="svg2"
   version="1.1">
  <metadata
     id="metadata8">
    <rdf:RDF>
      <cc:Work
         rdf:about="">
        <dc:format>image/svg+xml</dc:format>
        <dc:type
           rdf:resource="http://purl.org/dc/dcmitype/StillImage" />
        <dc:title></dc:title>
      </cc:Work>
    </rdf:RDF>
  </metadata>
  <defs
     id="defs6" />
  <sodipodi:namedview
     inkscape:current-layer="g10"
     inkscape:window-maximized="0"
     inkscape:window-y="13"
     inkscape:window-x="963"
     inkscape:cy="655.04514"
     inkscape:cx="567.28512"
     inkscape:zoom="0.17086161"
     showgrid="false"
     id="namedview4"
     inkscape:window-height="1032"
     inkscape:window-width="942"
     inkscape:pageshadow="2"
     inkscape:pageopacity="0"
     guidetolerance="10"
     gridtolerance="10"
     objecttolerance="10"
     borderopacity="1"
     bordercolor="#666666"
     pagecolor="#ffffff"
     inkscape:document-rotation="0" />
  <g
     transform="translate(34.40545,192.08915)"
     id="g10"
     inkscape:label="Image"
     inkscape:groupmode="layer">
    <path
       transform="translate(-34.40545,-192.08915)"
       d="M 567.28516 0 L 0 327.52344 L 0 982.56641 L 567.28516 1310.0898 L 1134.5703 982.56641 L 1134.5703 327.52344 L 567.28516 0 z M 793.41992 217.43945 C 806.3218 217.48776 818.72415 225.29947 823.59375 238.20898 C 827.21945 247.82098 826.14354 254.96727 816.79297 283.41602 C 800.72343 332.30771 786.44549 367.94086 767.91992 405.38477 C 751.98272 437.59688 735.50252 464.93208 719.27734 486.06836 C 715.86428 490.51454 713.27782 494.35789 713.5293 494.60938 C 714.28886 495.36893 740.87612 482.193 754.82031 474.14648 C 812.70572 440.7436 860.47304 397.38599 905.71484 337.17773 C 913.64165 326.62849 919.89427 319.28044 922.34766 317.63281 C 938.62031 306.70392 960.33517 312.26384 969.47852 329.69922 C 971.80246 334.13099 972.11421 335.79995 972.12695 343.91602 C 972.14585 355.66583 971.18964 357.66002 955.5918 378.42383 C 927.78396 415.44145 899.61574 445.79382 867.57227 473.26953 C 837.3146 499.21393 800.06298 524.23463 765.71875 541.67773 C 760.2639 544.44817 755.79741 546.93862 755.79492 547.21289 C 755.79292 547.48733 761.99916 548.96165 769.58594 550.49023 C 818.46807 560.3393 874.48127 577.72572 921.80469 597.73828 C 959.25701 613.57631 1008.969 641.06813 1034.2773 659.9375 C 1048.1177 670.2566 1052.5658 686.12153 1045.7461 700.8418 C 1038.8136 715.80469 1019.8959 723.3474 1004.957 717.10547 C 1003.2193 716.37939 994.90597 711.21371 986.48438 705.62695 C 926.88794 666.09185 854.73029 636.41981 772.24805 617.53125 C 754.79493 613.53456 722.56635 607.21484 719.64062 607.21484 C 718.16945 607.21484 720.85329 610.27188 729.62305 618.58789 C 802.00347 687.22298 866.3966 799.04563 918.27539 946.19727 C 932.47195 986.46515 933.1904 988.99495 932.69727 997.00391 C 931.11677 1022.6749 902.55362 1036.033 881.43555 1020.9766 C 874.65863 1016.1449 872.29804 1011.5349 863.77148 986.50586 C 815.50786 844.83186 761.25453 744.25288 696.45508 676.32031 L 688.26367 667.73438 L 690.97656 680.97266 C 708.48382 766.38553 674.41834 856.90805 612.61719 889.19531 C 555.05315 919.26899 489.5558 891.86601 455.75 823.56445 C 441.51301 794.79971 434.88108 767.81685 433.74219 734.02344 C 433.09356 714.77645 434.26669 700.0355 437.89258 681.86328 C 439.20807 675.27011 440.11881 669.7106 439.91602 669.50781 C 439.71323 669.30502 436.09761 672.73852 431.88086 677.13867 C 368.55075 743.22346 312.77912 846.65636 265.5293 985.65234 C 255.59031 1014.8907 253.37574 1018.51 241.7793 1024.4609 C 235.05326 1027.9127 223.72546 1028.1537 216.25586 1025.0059 C 203.9205 1019.8075 197.20639 1010.223 196.52734 996.83789 C 196.13964 989.19727 196.25163 988.74585 204.96094 963.04883 C 249.08062 832.87317 301.93988 730.87074 363.80273 656.5293 C 369.31616 649.9036 382.15026 636.09644 392.32227 625.84766 C 402.49427 615.59888 410.35426 607.21637 409.78906 607.21875 C 406.98666 607.23135 374.60261 613.60305 357.8418 617.43945 C 272.18621 637.04581 201.91509 666.18716 138.00391 708.60742 C 127.66805 715.46774 123.51577 717.66552 119.20508 718.56055 C 105.00955 721.50749 90.923095 714.85776 83.949219 701.91797 C 80.881707 696.22635 80.646776 695.16184 80.662109 687.07422 C 80.691039 671.80265 84.136403 666.98735 105.14258 652.86914 C 167.48471 610.96875 240.99367 579.56099 327.44727 557.88281 C 337.56303 555.34616 352.04799 552.01884 359.63477 550.49023 C 367.22155 548.96165 373.42417 547.48733 373.41797 547.21289 C 373.41197 546.93862 367.51838 543.71523 360.32227 540.05078 C 328.55906 523.87625 296.19742 502.23084 264.52734 475.97461 C 247.99431 462.2677 211.38567 425.5223 196.43945 407.63281 C 180.17001 388.15992 162.97024 365.00694 159.31055 357.65234 C 149.48917 337.91521 163.49504 313.79635 185.70703 312.19531 C 193.7007 311.6191 201.40682 313.73437 207.10938 318.07031 C 209.40741 319.81783 216.76468 328.54825 223.45898 337.47266 C 272.49288 402.84231 330.11725 452.42266 394.55273 484.68359 C 409.49067 492.16251 416.21234 495.06852 415.31836 493.65625 C 414.90565 493.00447 411.44802 488.31157 407.63477 483.22852 C 371.41663 434.95049 337.15336 362.25617 309.40625 274.82227 C 302.26632 252.32362 301.75759 246.43075 306.11523 236.7207 C 309.26939 229.69212 316.03058 222.84562 322.88086 219.74219 C 329.74138 216.63403 341.13598 216.81071 348.30469 220.13672 C 354.94093 223.21563 360.20612 227.75039 363.20703 232.9707 C 364.46579 235.1604 368.16992 245.56676 371.4375 256.0957 C 393.00506 325.5914 421.09053 388.23612 449.94922 431.21289 C 468.6284 459.03018 490.68476 482.79929 509.79492 495.70703 C 515.75591 499.73355 518.07872 500.85154 518.42188 499.85742 C 521.05147 492.2391 530.03083 479.49792 536.51367 474.18555 C 540.67429 470.77626 540.69141 470.73687 539.73633 466.62695 C 538.37731 460.77835 539.38135 449.93686 541.90625 443.21484 C 544.19672 437.11731 550.0819 429.90583 554.72656 427.50391 C 556.26782 426.70682 557.68098 426.20443 557.86523 426.38867 C 558.04947 426.57292 558.96357 434.90355 559.89648 444.90039 L 561.5918 463.07617 L 564.54688 462.78711 L 567.50195 462.49805 L 569.16602 444.70508 C 570.08145 434.91933 571.0237 426.72061 571.25977 426.48438 C 572.16618 425.57814 577.49695 429.14982 580.96484 432.98828 C 587.89189 440.65568 591.5359 454.10119 589.5625 464.71289 L 588.49219 470.46289 L 595.94141 478.0957 C 600.95798 483.237 604.61055 488.10046 607.13086 492.99023 C 609.1889 496.98323 610.98476 500.39089 611.12305 500.5625 C 611.26117 500.73394 613.2671 499.68999 615.58008 498.24414 C 635.84667 485.5766 661.83709 457.74422 681.50195 427.64844 C 708.69171 386.03599 733.82777 329.87809 755.80859 261.63672 C 760.18164 248.0604 764.76051 235.20969 765.98438 233.08008 C 768.74344 228.27945 773.48449 223.73237 778.4668 221.10742 C 783.24672 218.58918 788.37136 217.42055 793.41992 217.43945 z "
       inkscape:transform-center-y="-2.0158062e-06"
       inkscape:transform-center-x="1.4942359e-06"
       style="fill:#ff8c42;fill-opacity:1;stroke:none;stroke-width:3.77953;stroke-miterlimit:4;stroke-dasharray:none;stroke-opacity:0.92549;paint-order:markers fill stroke;stop-color:#000000"
       id="path1415" />
  </g>
</svg>
