<?xml version="1.0" encoding="UTF-8" standalone="no"?>
<svg
   xmlns:dc="http://purl.org/dc/elements/1.1/"
   xmlns:cc="http://creativecommons.org/ns#"
   xmlns:rdf="http://www.w3.org/1999/02/22-rdf-syntax-ns#"
   xmlns:svg="http://www.w3.org/2000/svg"
   xmlns="http://www.w3.org/2000/svg"
   xmlns:sodipodi="http://sodipodi.sourceforge.net/DTD/sodipodi-0.dtd"
   xmlns:inkscape="http://www.inkscape.org/namespaces/inkscape"
   inkscape:export-ydpi="96.099998"
   inkscape:export-xdpi="96.099998"
   inkscape:export-filename="/home/ali/Code/HiveMind/src/assets/black_grass_hopper.png"
   inkscape:version="1.0 (4035a4fb49, 2020-05-01)"
   sodipodi:docname="spider.svg"
   viewBox="0 0 1134.5704 1310.0899"
   height="1310.0898"
   width="1134.5703"
   id="svg2"
   version="1.1">
  <metadata
     id="metadata8">
    <rdf:RDF>
      <cc:Work
         rdf:about="">
        <dc:format>image/svg+xml</dc:format>
        <dc:type
           rdf:resource="http://purl.org/dc/dcmitype/StillImage" />
        <dc:title></dc:title>
      </cc:Work>
    </rdf:RDF>
  </metadata>
  <defs
     id="defs6" />
  <sodipodi:namedview
     inkscape:current-layer="g10"
     inkscape:window-maximized="0"
     inkscape:window-y="13"
     inkscape:window-x="963"
     inkscape:cy="655.04514"
     inkscape:cx="567.28512"
     inkscape:zoom="0.17086161"
     showgrid="false"
     id="namedview4"
     inkscape:window-height="1032"
     inkscape:window-width="942"
     inkscape:pageshadow="2"
     inkscape:pageopacity="0"
     guidetolerance="10"
     gridtolerance="10"
     objecttolerance="10"
     borderopacity="1"
     bordercolor="#666666"
     pagecolor="#ffffff"
     inkscape:document-rotation="0" />
  <g
     transform="translate(34.40545,192.08915)"
     id="g10"
     inkscape:label="Image"
     inkscape:groupmode="layer">
    <path
       id="path4090"
       d="m 181.84989,832.91767 c -12.33536,-5.19839 -19.04869,-14.78429 -19.72774,-28.16939 -0.3877,-7.64062 -0.27505,-8.09218 8.43426,-33.7892 44.11968,-130.17566 96.97779,-232.17748 158.84064,-306.51892 5.51343,-6.6257 18.34696,-20.43199 28.51897,-30.68077 10.172,-10.24878 18.032,-18.63207 17.4668,-18.62969 -2.8024,0.0126 -35.18635,6.38327 -51.94716,10.21967 -85.65559,19.60636 -155.92551,48.74781 -219.83669,91.16807 -10.335858,6.86032 -14.488262,9.05884 -18.798949,9.95387 -14.195526,2.94694 -28.281653,-3.70238 -35.255529,-16.64217 -3.067512,-5.69162 -3.303206,-6.75565 -3.287873,-14.84327 0.02893,-15.27157 3.475308,-20.08691 24.481483,-34.20512 62.342128,-41.90039 135.850738,-73.30969 222.304338,-94.98787 10.11576,-2.53665 24.59954,-5.86263 32.18632,-7.39124 7.58678,-1.52858 13.78912,-3.00367 13.78292,-3.27811 -0.006,-0.27427 -5.89907,-3.49687 -13.09518,-7.16132 -31.76321,-16.17453 -64.12446,-37.82127 -95.79454,-64.0775 -16.53303,-13.70691 -53.14218,-50.45212 -68.0884,-68.34161 -16.26944,-19.47289 -33.46803,-42.62497 -37.12772,-49.97957 -9.82138,-19.73713 4.18421,-43.85661 26.3962,-45.45765 7.99367,-0.57621 15.69869,1.53885 21.40124,5.87479 2.29804,1.74752 9.65531,10.47886 16.34961,19.40327 49.0339,65.36965 106.65812,114.9502 171.0936,147.21113 14.93794,7.47892 21.66104,10.38338 20.76706,8.97111 -0.41271,-0.65178 -3.87036,-5.34399 -7.68361,-10.42704 -36.21814,-48.27803 -70.48106,-120.97175 -98.22817,-208.405658 -7.13993,-22.498647 -7.64899,-28.391305 -3.29135,-38.101353 3.15416,-7.028586 9.91555,-13.876052 16.76583,-16.979484 6.86052,-3.108162 18.25383,-2.931247 25.42254,0.394762 6.63624,3.07891 11.90172,7.613414 14.90263,12.833726 1.25876,2.189701 4.96214,12.59584 8.22972,23.124788 21.56756,69.495699 49.65416,132.141259 78.51285,175.118029 18.67918,27.81729 40.73512,51.58696 59.84528,64.4947 5.96099,4.02652 8.2836,5.14361 8.62675,4.14949 2.6296,-7.61832 11.60946,-20.3603 18.0923,-25.67267 4.16062,-3.40929 4.17671,-3.4469 3.22163,-7.55682 -1.35902,-5.8486 -0.35352,-16.69005 2.17138,-23.41207 2.29047,-6.09753 8.17599,-13.31042 12.82065,-15.71234 1.54126,-0.79709 2.95292,-1.29836 3.13717,-1.11412 0.18424,0.18425 1.09814,8.51417 2.03105,18.51101 l 1.69589,18.17616 2.95532,-0.28954 2.95516,-0.28964 1.66477,-17.79214 c 0.91543,-9.78575 1.85777,-17.98539 2.09384,-18.22162 0.90641,-0.90624 6.23593,2.66625 9.70382,6.50471 6.92705,7.6674 10.57064,21.11275 8.59724,31.72445 l -1.06927,5.74976 7.44823,7.6335 c 5.01657,5.1413 8.66993,10.00389 11.19024,14.89366 2.05804,3.993 3.85482,7.40034 3.99311,7.57195 0.13812,0.17144 2.14371,-0.871 4.45669,-2.31685 20.26659,-12.66754 46.25569,-40.4998 65.92055,-70.59558 27.18976,-41.61245 52.327,-97.77198 74.30782,-166.013352 4.37305,-13.576319 8.95232,-26.426615 10.17619,-28.556231 2.75907,-4.800624 7.49831,-9.346524 12.48062,-11.971469 16.9953,-8.95375 38.35267,-0.860735 45.12777,17.100335 3.6257,9.612 2.55073,16.7588 -6.79984,45.207541 -16.06954,48.891696 -30.34819,84.525106 -48.87376,121.969016 -15.9372,32.21211 -32.41741,59.548 -48.64259,80.68428 -3.41306,4.44618 -5.99984,8.28965 -5.74836,8.54113 0.75956,0.75956 27.3473,-12.41684 41.29149,-20.46336 57.88541,-33.40288 105.65196,-76.7619 150.89376,-136.97016 7.92681,-10.54924 14.17962,-17.89633 16.63301,-19.54396 16.27265,-10.92889 37.9883,-5.36946 47.13165,12.06592 2.32394,4.43177 2.63494,6.1016 2.64768,14.21767 0.0189,11.74981 -0.9369,13.74319 -16.53474,34.507 -27.80784,37.01762 -55.97648,67.37106 -88.01995,94.84677 -30.25767,25.9444 -67.50998,50.96356 -101.85421,68.40666 -5.45485,2.77044 -9.91967,5.26152 -9.92216,5.53579 -0.002,0.27444 6.20301,1.74953 13.78979,3.27811 48.88213,9.84907 104.8957,27.23523 152.21912,47.24779 37.45232,15.83803 87.16489,43.32968 112.47322,62.19905 13.8404,10.3191 18.2881,26.18293 11.4684,40.9032 -6.9325,14.96289 -25.85061,22.50644 -40.78946,16.26451 -1.73776,-0.72608 -10.05001,-5.89112 -18.4716,-11.47788 -59.59643,-39.5351 -131.75544,-69.20711 -214.23768,-88.09567 -17.45312,-3.99669 -49.68084,-10.31741 -52.60656,-10.31741 -1.47117,0 1.21282,3.05815 9.98258,11.37416 72.38042,68.63509 136.77268,180.45765 188.65147,327.60929 14.19656,40.26788 14.91468,42.7979 14.42155,50.80686 -1.5805,25.67102 -30.14239,39.02758 -51.26046,23.97118 -6.77692,-4.83162 -9.13892,-9.4405 -17.66548,-34.4695 -48.26362,-141.674 -102.51627,-242.25293 -167.31572,-310.1855 l -8.19099,-8.58719 2.71333,13.23806 c 17.50726,85.41287 -16.55919,175.93613 -78.36034,208.22339 -57.56404,30.07368 -123.06068,2.67058 -156.86648,-65.63098 -14.23699,-28.76474 -20.86893,-55.7474 -22.00782,-89.54081 -0.64863,-19.24699 0.52425,-33.98757 4.15014,-52.15979 1.31549,-6.59317 2.22591,-12.15361 2.02312,-12.3564 -0.20279,-0.20279 -3.81877,3.23148 -8.03552,7.63163 -63.33011,66.08479 -119.10152,169.51837 -166.35134,308.51435 -9.93899,29.23836 -12.1532,32.85644 -23.74964,38.80734 -6.72604,3.45172 -18.05431,3.69422 -25.52391,0.54635 z"
       style="fill:#000000;stroke-width:0.968005" />
  </g>
</svg>
