{
    "asset" : {
        "generator" : "Khronos glTF Blender I/O v1.5.17",
        "version" : "2.0"
    },
    "scene" : 0,
    "scenes" : [
        {
            "name" : "Scene",
            "nodes" : [
                3,
                5,
                6,
                7,
                8
            ]
        }
    ],
    "nodes" : [
        {
            "mesh" : 0,
            "name" : "node-0"
        },
        {
            "children" : [
                0
            ],
            "name" : "Node_3",
            "translation" : [
                -32.62896728515625,
                -94.19474792480469,
                -1.0352904796600342
            ]
        },
        {
            "children" : [
                1
            ],
            "name" : "Node_2",
            "translation" : [
                32.62896728515625,
                94.19474792480469,
                1.0352904796600342
            ]
        },
        {
            "children" : [
                2
            ],
            "name" : "Node_1",
            "scale" : [
                0.004999999888241291,
                0.004999999888241291,
                0.004999999888241291
            ]
        },
        {
            "name" : "headLightNode",
            "translation" : [
                -307.1231994628906,
                153.5615997314453,
                -153.5615997314453
            ]
        },
        {
            "children" : [
                4
            ],
            "name" : "Camera.001",
            "rotation" : [
                -0.2999737560749054,
                0.6941980719566345,
                -0.513410747051239,
                -0.4056035578250885
            ],
            "scale" : [
                0.41166162490844727,
                0.41166162490844727,
                0.41166162490844727
            ],
            "translation" : [
                -377.29534912109375,
                308.4811706542969,
                -239.59751892089844
            ]
        },
        {
            "name" : "keyLightNode",
            "rotation" : [
                -0.14607979357242584,
                -0.26535341143608093,
                0.26535341143608093,
                0.9153338670730591
            ],
            "scale" : [
                0,
                127.69513702392578,
                0
            ],
            "translation" : [
                -340.6567687988281,
                486.3841552734375,
                -246.21133422851562
            ]
        },
        {
            "name" : "Light",
            "rotation" : [
                0.16907575726509094,
                0.7558803558349609,
                -0.27217137813568115,
                0.570947527885437
            ],
            "translation" : [
                4.076245307922363,
                5.903861999511719,
                -1.0054539442062378
            ]
        },
        {
            "name" : "Camera",
            "rotation" : [
                0.483536034822464,
                0.33687159419059753,
                -0.20870360732078552,
                0.7804827094078064
            ],
            "translation" : [
                7.358891487121582,
                4.958309173583984,
                6.925790786743164
            ]
        }
    ],
    "materials" : [
        {
            "doubleSided" : true,
            "name" : "1A1A1A",
            "pbrMetallicRoughness" : {
                "baseColorFactor" : [
                    0.010396045632660389,
                    0.010396045632660389,
                    0.010396045632660389,
                    1
                ],
                "metallicFactor" : 0,
                "roughnessFactor" : 0.749321699142456
            }
        },
        {
            "doubleSided" : true,
            "name" : "F44336",
            "pbrMetallicRoughness" : {
                "baseColorFactor" : [
                    0.9155868291854858,
                    0.06903493404388428,
                    0.04484441503882408,
                    1
                ],
                "metallicFactor" : 0,
                "roughnessFactor" : 0.749321699142456
            }
        }
    ],
    "meshes" : [
        {
            "name" : "buffer-0-mesh-0",
            "primitives" : [
                {
                    "attributes" : {
                        "POSITION" : 0,
                        "NORMAL" : 1,
                        "TEXCOORD_0" : 2
                    },
                    "indices" : 3,
                    "material" : 0
                },
                {
                    "attributes" : {
                        "POSITION" : 4,
                        "NORMAL" : 5,
                        "TEXCOORD_0" : 6
                    },
                    "indices" : 7,
                    "material" : 1
                }
            ]
        }
    ],
    "accessors" : [
        {
            "bufferView" : 0,
            "componentType" : 5126,
            "count" : 3168,
            "max" : [
                181.33407592773438,
                180.032958984375,
                207.05809020996094
            ],
            "min" : [
                -163.83331298828125,
                -0.5772039890289307,
                -207.05809020996094
            ],
            "type" : "VEC3"
        },
        {
            "bufferView" : 1,
            "componentType" : 5126,
            "count" : 3168,
            "type" : "VEC3"
        },
        {
            "bufferView" : 2,
            "componentType" : 5126,
            "count" : 3168,
            "type" : "VEC2"
        },
        {
            "bufferView" : 3,
            "componentType" : 5123,
            "count" : 3168,
            "type" : "SCALAR"
        },
        {
            "bufferView" : 4,
            "componentType" : 5126,
            "count" : 72,
            "max" : [
                172.5384063720703,
                191.8179473876953,
                72.15196990966797
            ],
            "min" : [
                37.814666748046875,
                172.0208282470703,
                -72.15190887451172
            ],
            "type" : "VEC3"
        },
        {
            "bufferView" : 5,
            "componentType" : 5126,
            "count" : 72,
            "type" : "VEC3"
        },
        {
            "bufferView" : 6,
            "componentType" : 5126,
            "count" : 72,
            "type" : "VEC2"
        },
        {
            "bufferView" : 7,
            "componentType" : 5123,
            "count" : 72,
            "type" : "SCALAR"
        }
    ],
    "bufferViews" : [
        {
            "buffer" : 0,
            "byteLength" : 38016,
            "byteOffset" : 0
        },
        {
            "buffer" : 0,
            "byteLength" : 38016,
            "byteOffset" : 38016
        },
        {
            "buffer" : 0,
            "byteLength" : 25344,
            "byteOffset" : 76032
        },
        {
            "buffer" : 0,
            "byteLength" : 6336,
            "byteOffset" : 101376
        },
        {
            "buffer" : 0,
            "byteLength" : 864,
            "byteOffset" : 107712
        },
        {
            "buffer" : 0,
            "byteLength" : 864,
            "byteOffset" : 108576
        },
        {
            "buffer" : 0,
            "byteLength" : 576,
            "byteOffset" : 109440
        },
        {
            "buffer" : 0,
            "byteLength" : 144,
            "byteOffset" : 110016
        }
    ],
    "buffers" : [
        {
            "byteLength" : 110160,
            "uri" : "spider.bin"
        }
    ]
}
